<?xml version="1.0" encoding="utf-8"?>
<svg width="48px" height="48px" viewBox="0 0 48 48" version="1.1" xmlns:xlink="http://www.w3.org/1999/xlink" xmlns="http://www.w3.org/2000/svg">
  <defs>
    <path d="M0 0L48 0L48 48L0 48L0 0Z" id="path_1" />
    <clipPath id="mask_1">
      <use xlink:href="#path_1" />
    </clipPath>
  </defs>
  <g id="Adobe-Xd-icon">
    <path d="M0 0L48 0L48 48L0 48L0 0Z" id="Background" fill="none" fill-rule="evenodd" stroke="none" />
    <g clip-path="url(#mask_1)">
      <path d="M0 4C0 1.791 1.791 0 4 0L32 0C34.209 0 36 1.791 36 4L36 32C36 34.209 34.209 36 32 36L4 36C1.791 36 0 34.209 0 32L0 4L0 4Z" transform="translate(6 6)" id="Shape" fill="#FF41C8" fill-rule="evenodd" stroke="none" />
      <path d="M0 0L0 30L30 30L30 0L0 0L0 0ZM10.093 12.695L12.007 7.812L15.298 7.812L11.958 14.863L15.376 22.031L12.046 22.031L10.093 17.06L8.15 22.031L4.82 22.031L8.238 14.863L4.888 7.812L8.179 7.812L10.093 12.695L10.093 12.695ZM16.069 16.426C16.069 14.694 16.362 13.402 16.948 12.549C17.534 11.696 18.386 11.27 19.507 11.27C20.32 11.27 20.998 11.622 21.538 12.325L21.538 7.032L24.321 7.032L24.321 22.032L21.811 22.032L21.684 20.958C21.118 21.805 20.388 22.228 19.496 22.228C18.39 22.228 17.545 21.805 16.962 20.958C16.379 20.111 16.081 18.868 16.068 17.228L16.068 16.426L16.069 16.426ZM18.843 17.119C18.843 18.161 18.953 18.889 19.175 19.302C19.397 19.715 19.771 19.922 20.298 19.922C20.845 19.922 21.258 19.678 21.538 19.19L21.538 14.366C21.265 13.845 20.854 13.585 20.308 13.585C19.8 13.585 19.429 13.79 19.195 14.2C18.961 14.61 18.843 15.34 18.843 16.388L18.843 17.119L18.843 17.119Z" transform="translate(9 9)" id="Shape" fill="#16020B" fill-rule="evenodd" stroke="none" />
    </g>
  </g>
</svg>