<?xml version="1.0" encoding="utf-8"?>
<svg width="48px" height="48px" viewBox="0 0 48 48" version="1.1" xmlns:xlink="http://www.w3.org/1999/xlink" xmlns="http://www.w3.org/2000/svg">
  <defs>
    <path d="M0 0L48 0L48 48L0 48L0 0Z" id="path_1" />
    <clipPath id="mask_1">
      <use xlink:href="#path_1" />
    </clipPath>
  </defs>
  <g id="Bootstrap-icon">
    <path d="M0 0L48 0L48 48L0 48L0 0Z" id="Background" fill="none" fill-rule="evenodd" stroke="none" />
    <g clip-path="url(#mask_1)">
      <path d="M36 31C36 33.762 33.762 36 31 36L5 36C2.239 36 0 33.762 0 31L0 5C0 2.238 2.239 0 5 0L31 0C33.762 0 36 2.238 36 5L36 31L36 31Z" transform="translate(6 6)" id="Shape" fill="#673AB7" fill-rule="evenodd" stroke="none" />
      <path d="M18.03 13.6C17.38 12.7 16.44 12.08 15.23 11.75C15.23 11.75 16.25 11.38 17.17 10C17.72 9.12 18 8.06 18 6.82C18 4.67 17.22 3.02 15.66 1.89C14.1 0.76 12.34 0 9.35 0L0 0L0 24L10.43 24C13.26 23.98 15.39 23.37 16.84 22.2C18.28 21.01 19 19.25 19 16.9C19 15.6 18.68 14.5 18.03 13.6L18.03 13.6ZM6 4C6 4 10.17 4 10.25 4C11.77 4 13 5.23 13 6.75C13 8.27 11.77 9.5 10.25 9.5C10.17 9.5 6 9.5 6 9.5L6 4L6 4ZM11 20L6 20L6 14L11 14C12.66 14 14 15.34 14 17C14 18.66 12.66 20 11 20L11 20Z" transform="translate(15 12)" id="Shape" fill="#FFFFFF" fill-rule="evenodd" stroke="none" />
    </g>
  </g>
</svg>