<svg width="38" height="49" viewBox="0 0 38 49" fill="none" xmlns="http://www.w3.org/2000/svg">
<path d="M16.9008 0.5H24.7454V36.4545C20.7271 37.2146 17.769 37.5136 14.5686 37.5136C4.98744 37.5036 0 33.2232 0 25.0024C0 17.0816 5.29032 11.9411 13.4883 11.9411C14.7604 11.9411 15.7296 12.0411 16.9008 12.3412V0.5ZM17.1757 18.8205C16.2569 18.5205 15.4997 18.4204 14.5305 18.4204C10.5628 18.4204 8.27098 20.8407 8.27098 25.0821C8.27098 29.2115 10.4618 31.4917 14.48 31.4917C15.3483 31.4917 16.055 31.4427 17.1757 31.2927V18.8205Z" fill="#2BA977"/>
<path d="M37.5735 12.9064V30.9081C37.5735 37.1077 37.1091 40.089 35.7461 42.6593C34.474 45.1305 32.7981 46.6887 29.3351 48.4098L22.0559 44.9795C25.5188 43.3703 27.1948 41.9482 28.265 39.778C29.3856 37.5588 29.739 34.9885 29.739 28.2279V12.9064H37.5735Z" fill="#2BA977"/>
<path d="M28.9484 0.5H36.793V8.47078H28.9484V0.5Z" fill="#2BA977"/>
</svg>
