<svg width="48" height="72" viewBox="0 0 48 72" fill="none" xmlns="http://www.w3.org/2000/svg">
<g clip-path="url(#clip0)">
<path d="M12.0024 71.9858C18.6251 71.9858 24 66.6108 24 59.9881V47.9904H12.0024C5.37975 47.9904 0.00482178 53.3654 0.00482178 59.9881C0.00482178 66.6108 5.37975 71.9858 12.0024 71.9858Z" fill="#0ACF83"/>
<path d="M0.00482178 35.9927C0.00482178 29.3701 5.37975 23.9952 12.0024 23.9952H24V47.9903H12.0024C5.37975 47.9903 0.00482178 42.6154 0.00482178 35.9927Z" fill="#A259FF"/>
<path d="M0.00482178 11.9976C0.00482178 5.37492 5.37975 0 12.0024 0H24V23.9952H12.0024C5.37975 23.9952 0.00482178 18.6203 0.00482178 11.9976Z" fill="#F24E1E"/>
<path d="M24 0H35.9976C42.6203 0 47.9953 5.37492 47.9953 11.9976C47.9953 18.6203 42.6203 23.9952 35.9976 23.9952H24V0Z" fill="#FF7262"/>
<path d="M47.9953 35.9927C47.9953 42.6154 42.6203 47.9903 35.9976 47.9903C29.3749 47.9903 24 42.6154 24 35.9927C24 29.3701 29.3749 23.9952 35.9976 23.9952C42.6203 23.9952 47.9953 29.3701 47.9953 35.9927Z" fill="#1ABCFE"/>
</g>
<defs>
<clipPath id="clip0">
<rect width="48" height="71.9856" fill="white"/>
</clipPath>
</defs>
</svg>
