<svg width="49" height="49" viewBox="0 0 49 49" fill="none" xmlns="http://www.w3.org/2000/svg">
<g clip-path="url(#clip0)">
<path d="M15.4292 41.7978L15.3227 41.5852C15.11 41.1596 15.11 40.7339 15.2165 40.2018H3.72615L20.7493 9.98655L27.8777 22.8603L30.218 21.1578L23.0897 8.28405C22.9835 8.07142 22.1323 6.79492 20.7493 6.79492C20.1107 6.79492 19.1533 7.00755 18.4085 8.39055L1.17278 38.9253C1.06628 39.2448 0.32153 40.6278 0.95978 41.7978C1.3854 42.4364 2.02403 43.0747 3.51353 43.0747H17.9829C16.4934 43.0747 15.7487 42.4364 15.4292 41.7982V41.7978Z" fill="#00C58E"/>
<path d="M48.1978 39.0303L34.3667 14.1345C34.1541 13.9218 33.4093 12.5385 32.026 12.5385C31.3877 12.5385 30.4303 12.8576 29.6856 14.1345L27.877 17.1135V22.8588L32.0263 15.7305L45.751 40.2007H40.5377C40.6249 40.7072 40.5504 41.2284 40.3247 41.6902L40.2182 41.7967C39.58 42.9667 37.984 43.0732 37.7713 43.0732H45.8571C46.1762 43.0732 47.6657 42.9671 48.4105 41.7967C48.7296 41.2646 48.9426 40.3072 48.1978 39.0303V39.0303Z" fill="#108775"/>
<path d="M40.6453 41.7977V41.6912L40.7518 41.4786C40.858 41.053 40.9645 40.6274 40.858 40.2017L40.4327 38.9252L29.581 19.9874L27.985 17.1149H27.8785L26.2825 19.9874L15.4307 38.9249L15.0055 40.2017C14.9024 40.7428 14.977 41.3026 15.2181 41.7977C15.6437 42.436 16.282 43.0746 17.7715 43.0746H37.9862C38.3053 43.0746 39.9013 42.9681 40.6461 41.7977H40.6453ZM27.8781 22.8599L37.7728 40.2017H17.9837L27.8781 22.8599Z" fill="#2F495E"/>
</g>
<defs>
<clipPath id="clip0">
<rect width="48" height="48" fill="white" transform="translate(0.704102 0.934082)"/>
</clipPath>
</defs>
</svg>
