<?xml version="1.0" encoding="utf-8"?>
<svg width="48px" height="48px" viewBox="0 0 48 48" version="1.1" xmlns:xlink="http://www.w3.org/1999/xlink" xmlns="http://www.w3.org/2000/svg">
  <defs>
    <path d="M0 0L48 0L48 48L0 48L0 0Z" id="path_1" />
    <clipPath id="mask_1">
      <use xlink:href="#path_1" />
    </clipPath>
  </defs>
  <g id="Adobe-Photoshop-icon">
    <path d="M0 0L48 0L48 48L0 48L0 0Z" id="Background" fill="none" fill-rule="evenodd" stroke="none" />
    <g clip-path="url(#mask_1)">
      <path d="M30 0L6 0C2.686 0 0 2.686 0 6L0 30C0 33.314 2.686 36 6 36L30 36C33.314 36 36 33.314 36 30L36 6C36 2.686 33.314 0 30 0L30 0Z" transform="translate(6 6)" id="Shape" fill="#50E6FF" fill-rule="evenodd" stroke="none" />
      <path d="M28 32L4 32C1.791 32 0 30.209 0 28L0 4C0 1.791 1.791 0 4 0L28 0C30.209 0 32 1.791 32 4L32 28C32 30.209 30.209 32 28 32L28 32Z" transform="translate(8 8)" id="Shape" fill="#092347" fill-rule="evenodd" stroke="none" />
      <path d="M0 0.342C0 0.236 0.0769997 0.147 0.182 0.135C0.582 0.0910006 1.698 0 4.079 0C7.667 0 10.18 1.423 10.18 5.317C10.18 8.829 7.789 10.89 3.931 10.89C3.706 10.89 3.481 10.89 2.715 10.89L2.715 16.772C2.715 16.87 2.635 16.95 2.537 16.95L0.179001 16.95C0.0810013 16.95 0.0010004 16.87 0.0010004 16.772L0.0010004 0.342L0 0.342ZM2.715 8.417C2.715 8.417 3.902 8.425 4.17 8.425C6.373 8.425 7.375 7.119 7.375 5.369C7.375 3.73 6.401 2.452 4.365 2.452C3.526 2.452 2.716 2.5 2.716 2.5L2.716 8.417L2.715 8.417Z" transform="translate(14.506989 15.030029)" id="Shape" fill="#FFFFFF" fill-rule="evenodd" stroke="none" />
      <path d="M0 9.682C0 9.587 0.103001 9.528 0.181999 9.58C0.685999 9.917 1.709 10.494 3.293 10.494C4.327 10.494 4.981 10.049 4.981 9.323C4.981 8.519 3.876 7.936 2.964 7.441C2.057 6.949 0.0199986 6.159 0.0199986 3.615C0.0199986 1.36 1.822 0 4.276 0C5.216 0 6.253 0.146 6.953 0.400999C7.068 0.442999 7.138 0.554998 7.138 0.677999L7.138 2.969C7.138 3.063 7.039 3.124 6.96 3.072C6.521 2.785 5.553 2.346 4.221 2.346C3.112 2.346 2.624 2.886 2.624 3.436C2.624 4.4 3.908 4.803 5.06 5.479C6.857 6.479 7.69 7.456 7.69 8.987C7.69 11.491 5.823 12.897 3.294 12.897C1.988 12.897 0.76 12.612 0.132 12.23C0.0450001 12.177 0.000999451 12.081 0.000999451 11.979L0 9.682L0 9.682Z" transform="translate(26.156006 19.287964)" id="Shape" fill="#FFFFFF" fill-rule="evenodd" stroke="none" />
    </g>
  </g>
</svg>