<svg width="48" height="48" viewBox="0 0 48 48" fill="none" xmlns="http://www.w3.org/2000/svg">
<g clip-path="url(#clip0)">
<path d="M42.9952 9.32966C40.0938 5.57252 36.1433 2.76018 31.6435 1.24835C27.1436 -0.263493 22.2965 -0.406926 17.7151 0.836186C13.1337 2.0793 9.02383 4.65312 5.9053 8.23213C2.78678 11.8111 0.79967 16.2346 0.195276 20.943C-0.409118 25.6514 0.396359 30.4333 2.50983 34.6839C4.62331 38.9345 7.94985 42.4629 12.0687 44.8228C16.1876 47.1827 20.9139 48.2682 25.6497 47.9419C30.3855 47.6156 34.9182 45.8922 38.6745 42.9897C49.1595 34.8867 51.0945 19.8184 42.9945 9.32966H42.9952Z" fill="#FF6C37"/>
<path d="M32.0947 15.291L21.975 25.491L19.1152 22.551C29.0752 12.591 30.075 13.491 32.0955 15.291H32.0947Z" fill="white"/>
<path d="M21.975 25.77C21.8854 25.7678 21.7998 25.7322 21.735 25.6703L18.855 22.7903C18.7901 22.7232 18.7539 22.6335 18.7539 22.5401C18.7539 22.4468 18.7901 22.3571 18.855 22.29C28.6747 12.4703 30.015 12.93 32.3347 15.03C32.4135 15.093 32.4577 15.189 32.4547 15.2903C32.4697 15.3878 32.4322 15.4875 32.355 15.5505L22.2352 25.671C22.164 25.7363 22.0717 25.7715 21.975 25.7708V25.77ZM19.6147 22.5503L21.975 24.9105L31.575 15.3105C31.2435 14.8951 30.7706 14.6165 30.2466 14.528C29.7226 14.4394 29.1843 14.5471 28.7347 14.8305C26.9947 15.6105 24.195 17.9903 19.6147 22.5503V22.5503Z" fill="#FF6C37"/>
<path d="M24.8752 28.311L22.1152 25.491L32.235 15.4905C34.9552 18.1507 30.915 22.5907 24.8752 28.3102V28.311Z" fill="white"/>
<path d="M24.8752 28.671C24.7867 28.664 24.7027 28.629 24.6352 28.5712L21.8152 25.8112C21.7729 25.7087 21.7729 25.5936 21.8152 25.491C21.7852 25.407 21.7852 25.3147 21.8152 25.2307L31.935 15.111C32.0812 14.9737 32.3085 14.9737 32.4547 15.111C33.1185 15.7215 33.4822 16.59 33.4545 17.4907C33.4545 20.1907 30.3742 23.5905 25.1347 28.551C25.0647 28.6203 24.9726 28.6627 24.8745 28.671H24.8752ZM22.635 25.491L24.8947 27.75C28.8945 23.97 32.715 20.07 32.7345 17.43C32.7562 16.8703 32.5712 16.3222 32.2147 15.8902L22.635 25.491Z" fill="#FF6C37"/>
<path d="M19.1947 22.611L21.195 24.6112C21.2078 24.6225 21.218 24.6363 21.225 24.6519C21.232 24.6674 21.2356 24.6842 21.2356 24.7012C21.2356 24.7183 21.232 24.7351 21.225 24.7506C21.218 24.7661 21.2078 24.78 21.195 24.7912L16.9747 25.6912C16.8 25.7287 16.6222 25.6447 16.5382 25.4872C16.4542 25.3297 16.4857 25.1347 16.6147 25.011L19.0747 22.5712C19.0747 22.5712 19.155 22.5712 19.1947 22.611V22.611Z" fill="white"/>
<path d="M16.875 26.091C16.7416 26.0893 16.611 26.0535 16.4954 25.9869C16.3799 25.9204 16.2833 25.8253 16.215 25.7108C16.0575 25.413 16.1137 25.0463 16.3552 24.8108L18.795 22.3508C18.883 22.2721 18.9968 22.2286 19.1149 22.2286C19.2329 22.2286 19.3467 22.2721 19.4347 22.3508L21.435 24.351C21.5535 24.4635 21.6 24.6338 21.555 24.7913C21.51 24.9488 21.378 25.074 21.2152 25.1115L16.995 26.0115L16.875 26.091ZM19.1152 23.0513L16.8555 25.311L20.5957 24.5108L19.1152 23.0513Z" fill="#FF6C37"/>
<path d="M37.4753 9.67049C36.0277 8.27399 33.7537 8.21549 32.2357 9.53324C30.7177 10.851 30.4583 13.113 31.6403 14.7405C32.8223 16.368 35.0505 16.824 36.7755 15.7905L34.0553 13.0702L37.4753 9.67049Z" fill="white"/>
<path d="M34.7753 16.71C33.9437 16.6993 33.1336 16.4442 32.4459 15.9763C31.7583 15.5085 31.2235 14.8486 30.9083 14.079C30.2633 12.5055 30.6203 10.6995 31.8083 9.49049C32.609 8.70447 33.6862 8.2641 34.8083 8.2641C35.9303 8.2641 37.0076 8.70447 37.8083 9.49049C37.8848 9.55499 37.9283 9.65024 37.9283 9.75074C37.9281 9.80018 37.9173 9.84901 37.8966 9.89391C37.8759 9.93882 37.8458 9.97874 37.8083 10.011L34.5683 13.071L37.0283 15.4912C37.0681 15.5293 37.0981 15.5765 37.1155 15.6288C37.1329 15.6811 37.1372 15.7369 37.128 15.7912C37.1221 15.8437 37.1047 15.8942 37.0771 15.9391C37.0495 15.9841 37.0124 16.0225 36.9683 16.0515C36.3074 16.4646 35.5477 16.6925 34.7685 16.7115L34.7753 16.71ZM34.7753 8.94974C33.3503 8.95724 32.0753 9.81449 31.5405 11.1247C31.0058 12.435 31.2968 13.9432 32.2958 14.9497C33.3128 15.972 34.8458 16.266 36.1755 15.69L33.8153 13.3297C33.7365 13.2667 33.6923 13.1707 33.6953 13.0695C33.6983 12.9757 33.7418 12.888 33.8153 12.8295L36.9353 9.68924C36.315 9.21374 35.5568 8.95424 34.7753 8.94899V8.94974Z" fill="#FF6C37"/>
<path d="M37.5352 9.73053L34.1152 13.1303L36.8355 15.8505C37.1093 15.6934 37.3642 15.5054 37.5952 15.2903C39.0772 13.7153 39.0502 11.2643 37.5352 9.73053Z" fill="white"/>
<path d="M36.7747 16.1505C36.7298 16.1529 36.6849 16.1452 36.6434 16.1279C36.6018 16.1107 36.5647 16.0843 36.5347 16.0507L33.8145 13.3305C33.7357 13.2675 33.6915 13.1715 33.6945 13.0702C33.6975 12.9765 33.741 12.8887 33.8145 12.8302L37.2142 9.49047C37.2471 9.44096 37.2916 9.40035 37.344 9.37226C37.3963 9.34417 37.4548 9.32947 37.5142 9.32947C37.5736 9.32947 37.6321 9.34417 37.6845 9.37226C37.7368 9.40035 37.7814 9.44096 37.8142 9.49047C38.2133 9.88152 38.5304 10.3483 38.7469 10.8634C38.9633 11.3786 39.0748 11.9317 39.0748 12.4905C39.0748 13.0492 38.9633 13.6024 38.7469 14.1175C38.5304 14.6327 38.2133 15.0994 37.8142 15.4905C37.5788 15.7402 37.3094 15.9555 37.014 16.1302C36.9396 16.1677 36.8536 16.175 36.774 16.1505H36.7747ZM34.575 13.071L36.8347 15.3307C36.9902 15.2218 37.1373 15.1014 37.275 14.9707C37.9393 14.3082 38.3134 13.4091 38.3152 12.471C38.3168 11.6314 38.0107 10.8203 37.455 10.191L34.575 13.071Z" fill="#FF6C37"/>
<path d="M32.5148 15.711C31.9523 15.183 31.077 15.183 30.5145 15.711L21.4553 24.75L22.9553 26.2703L32.535 17.8703C32.8313 17.5875 32.997 17.1953 32.9925 16.7858C32.988 16.3763 32.8155 15.987 32.5148 15.7103V15.711Z" fill="white"/>
<path d="M22.875 26.631C22.7854 26.6288 22.6998 26.5932 22.635 26.5313L21.1148 25.011C21.0499 24.9439 21.0137 24.8542 21.0137 24.7609C21.0137 24.6676 21.0499 24.5779 21.1148 24.5108L30.1748 15.4905C30.8933 14.7735 32.0573 14.7735 32.775 15.4905C33.135 15.8505 33.33 16.3418 33.315 16.8503C33.294 17.3558 33.0705 17.8313 32.6948 18.1703L23.115 26.5703C23.0453 26.6198 22.9598 26.6408 22.875 26.6303V26.631ZM21.8153 24.75L22.815 25.77L32.2148 17.5898C32.4473 17.3873 32.586 17.0978 32.595 16.7895C32.604 16.4813 32.4825 16.1798 32.2553 15.9698C31.818 15.5348 31.1123 15.5348 30.675 15.9698L21.8153 24.75Z" fill="#FF6C37"/>
<path d="M14.4352 35.0505C14.4096 35.0853 14.3958 35.1273 14.3958 35.1705C14.3958 35.2137 14.4096 35.2557 14.4352 35.2905L14.835 37.0305C14.8695 37.2383 14.7697 37.4453 14.586 37.5555C14.4969 37.6076 14.3935 37.6301 14.2908 37.6197C14.1881 37.6094 14.0913 37.5666 14.0145 37.4978L11.2747 34.8578L19.815 26.25H22.7752L24.7755 28.2503C21.6552 30.9783 18.1762 33.2663 14.4352 35.0505V35.0505Z" fill="white"/>
<path d="M14.2552 37.9905C14.0287 37.986 13.8052 37.893 13.6552 37.7303L11.0355 35.1105C10.9567 35.0475 10.9125 34.9515 10.9155 34.8503C10.9185 34.7565 10.962 34.6688 11.0355 34.6103L19.635 25.9905C19.6831 25.9393 19.7461 25.9045 19.815 25.8908H22.7947C22.8724 25.8633 22.9571 25.8633 23.0347 25.8908L25.035 27.891C25.1122 27.9623 25.1497 28.0673 25.1347 28.1708C25.1361 28.2205 25.126 28.2698 25.1052 28.315C25.0844 28.3601 25.0534 28.3998 25.0147 28.431L24.855 28.5713C21.7222 31.183 18.2755 33.3934 14.595 35.151L14.9752 36.771C15.0046 36.896 15.0058 37.0259 14.9785 37.1514C14.9513 37.2769 14.8964 37.3947 14.8179 37.4962C14.7393 37.5978 14.6391 37.6805 14.5245 37.7384C14.4099 37.7962 14.2838 37.8278 14.1555 37.8308L14.2552 37.9905ZM11.8155 34.8503L14.175 37.23C14.197 37.2496 14.2254 37.2605 14.2549 37.2605C14.2843 37.2605 14.3128 37.2496 14.3347 37.23C14.3494 37.2096 14.3574 37.1851 14.3574 37.1599C14.3574 37.1347 14.3494 37.1102 14.3347 37.0898L13.935 35.3498C13.8705 35.0925 13.995 34.8248 14.235 34.71C17.8166 32.9758 21.1744 30.8132 24.2347 28.2698L22.5945 26.6295H19.9147L11.8155 34.8503Z" fill="#FF6C37"/>
<path d="M9.21522 36.9105L11.2155 34.9103L14.2957 37.9905L9.39597 37.6508C9.22347 37.638 9.07722 37.5158 9.03597 37.3463C8.99472 37.1768 9.06747 37.0013 9.21597 36.9113L9.21522 36.9105Z" fill="white"/>
<path d="M14.355 38.2905L9.47471 37.9507C9.18521 37.9237 8.93621 37.7257 8.83421 37.461C8.73221 37.1962 8.79446 36.882 8.99471 36.6705L10.995 34.6702C11.0621 34.6054 11.1518 34.5692 11.2451 34.5692C11.3384 34.5692 11.4281 34.6054 11.4952 34.6702L14.5552 37.7302C14.6422 37.8502 14.6422 38.0107 14.5552 38.13C14.5087 38.205 14.4382 38.2612 14.355 38.2897V38.2905ZM9.47471 37.1707L13.4745 37.431L11.2747 35.3707L9.47471 37.1707Z" fill="#FF6C37"/>
<path d="M23.055 26.4915L19.0148 27.1117L21.3548 24.792L23.055 26.4915Z" fill="white"/>
<path d="M19.0148 27.4905C18.8775 27.4943 18.7523 27.4155 18.6945 27.2903C18.6519 27.2323 18.629 27.1623 18.629 27.0904C18.629 27.0185 18.6519 26.9484 18.6945 26.8905L21.0143 24.5505C21.1605 24.4133 21.3878 24.4133 21.534 24.5505L23.235 26.25C23.269 26.3039 23.287 26.3663 23.287 26.43C23.287 26.4937 23.269 26.5561 23.235 26.61C23.2183 26.6757 23.1831 26.7352 23.1335 26.7813C23.0838 26.8275 23.022 26.8584 22.9553 26.8703L18.9555 27.4905H19.0148ZM21.3548 25.3103L20.055 26.61L22.2953 26.2703L21.3548 25.3103Z" fill="#FF6C37"/>
<path d="M23.055 26.49L20.235 26.85C20.1595 26.8671 20.0805 26.8595 20.0098 26.8282C19.939 26.7969 19.8802 26.7436 19.842 26.6763C19.8039 26.609 19.7885 26.5311 19.7981 26.4543C19.8076 26.3775 19.8417 26.3059 19.8952 26.25L21.3555 24.7897L23.055 26.49Z" fill="white"/>
<path d="M20.1547 27.231C19.8885 27.2287 19.6447 27.0832 19.515 26.8507C19.4386 26.7138 19.409 26.5558 19.4307 26.4005C19.4523 26.2452 19.5241 26.1013 19.635 25.9905L21.0953 24.5302C21.2415 24.393 21.4687 24.393 21.615 24.5302L23.3152 26.2305C23.3658 26.2784 23.4014 26.3399 23.4177 26.4077C23.434 26.4754 23.4302 26.5464 23.407 26.612C23.3837 26.6777 23.3419 26.7352 23.2866 26.7776C23.2313 26.8199 23.1649 26.8454 23.0955 26.8507L20.2958 27.2107L20.1547 27.231ZM20.1547 26.4907L22.275 26.2305L21.3352 25.2907L20.1352 26.4907H20.1547ZM37.5548 12.0307C37.5171 11.9676 37.4575 11.9206 37.3874 11.8984C37.3174 11.8763 37.2416 11.8807 37.1745 11.9107C37.1414 11.9275 37.112 11.9508 37.088 11.9791C37.0641 12.0075 37.046 12.0403 37.035 12.0757C37.0125 12.147 37.02 12.2242 37.0545 12.291C37.1947 12.5857 37.1557 12.9345 36.9547 13.191C36.9022 13.2405 36.8797 13.3087 36.8797 13.3807C36.8805 13.4511 36.9072 13.5187 36.9547 13.5705C37.0061 13.5908 37.0632 13.5908 37.1145 13.5705C37.1611 13.5822 37.21 13.5809 37.2558 13.5668C37.3017 13.5526 37.3429 13.5261 37.3747 13.4902C37.5394 13.2886 37.6437 13.0445 37.6756 12.7861C37.7074 12.5277 37.6655 12.2656 37.5548 12.03V12.0307Z" fill="#FF6C37"/>
</g>
<defs>
<clipPath id="clip0">
<rect width="48" height="48" fill="white"/>
</clipPath>
</defs>
</svg>
