<svg width="48" height="48" viewBox="0 0 48 48" fill="none" xmlns="http://www.w3.org/2000/svg">
<g clip-path="url(#clip0)">
<path fill-rule="evenodd" clip-rule="evenodd" d="M9.38553 19.8217C9.44993 19.8703 9.56173 19.9019 9.44993 19.9979C9.36973 20.1097 9.27373 20.2057 9.20993 20.3339C9.14614 20.4463 9.09814 20.4779 9.00214 20.3983C9.12973 20.1899 9.25733 19.9972 9.38492 19.821L9.38553 19.8217ZM41.5242 36.6016C41.5242 36.649 41.54 36.6806 41.54 36.7292C41.5722 36.6654 41.5722 36.6332 41.5886 36.6016H41.5242ZM41.5242 36.745V36.7292V36.745ZM38.2627 42.9892L35.4799 27.5551C35.4325 27.5399 35.3687 27.5083 35.2563 27.4761C35.2885 27.5399 35.3049 27.5879 35.3207 27.6359C35.3997 27.6201 35.4325 27.6201 35.4641 27.6043C35.4641 27.5885 35.4641 27.5727 35.4805 27.5557L38.2633 42.9911L38.2627 42.9892ZM35.3845 24.0809C35.3687 24.1283 35.3687 24.1769 35.3687 24.2249C35.3687 24.1763 35.3687 24.1277 35.3857 24.0803L35.3845 24.0809ZM35.4003 24.4005C35.3845 24.4005 35.3845 24.4005 35.3687 24.3835V24.3993C35.3857 24.4151 35.3857 24.4151 35.4015 24.3993L35.4003 24.4005ZM35.3687 24.5281V24.4157C35.3219 24.4315 35.2739 24.4315 35.2095 24.4479C35.2897 24.4783 35.3699 24.4953 35.3699 24.5269L35.3687 24.5281Z" fill="#DD3735"/>
<path fill-rule="evenodd" clip-rule="evenodd" d="M47.8238 20.6382C47.7922 20.0136 47.7764 19.389 47.712 18.765C47.6002 17.9161 47.4884 17.0515 47.2964 16.2191C47.1524 15.5307 46.9137 14.8739 46.6731 14.2177C46.3693 13.4491 46.0655 12.6647 45.6815 11.9283C45.0581 10.7435 44.2427 9.68627 43.4911 8.58167C42.9941 7.87686 42.3549 7.30086 41.8749 6.58025C41.6033 6.16405 41.2035 5.81225 40.8037 5.49265C40.1639 4.97924 39.4925 4.51443 38.8211 4.06663C38.3095 3.71422 37.7979 3.37822 37.2535 3.07382C36.8221 2.8326 36.3585 2.6406 35.9107 2.4322C35.3991 2.1922 34.9033 1.90359 34.3279 1.79179C34.1833 1.76141 34.0557 1.71281 33.9117 1.6642C33.5441 1.5366 33.1923 1.3926 32.8241 1.2802C32.2652 1.104 31.7214 0.896198 31.1454 0.75159C30.5876 0.60759 30.0116 0.512198 29.4356 0.431388C28.7964 0.33721 28.1414 0.303793 27.501 0.24121C27.0854 0.192603 26.6698 0.14521 26.27 0.129413C25.6624 0.0978179 25.039 0.0978179 24.4314 0.0820204C24.1276 0.0656154 23.808 0.0334128 23.5042 0.0498179C23.0406 0.0656154 22.5771 0.113615 22.1128 0.177413C21.6657 0.22602 21.2179 0.305008 20.7865 0.37002C20.2597 0.433818 19.7323 0.46602 19.2043 0.530426C18.7085 0.594831 18.1969 0.690831 17.7017 0.771033C17.5255 0.803236 17.3493 0.867033 17.1731 0.898628C16.7903 0.978831 16.3905 1.01103 16.0065 1.13924C15.3199 1.34825 14.6315 1.58886 13.9601 1.84405C13.3361 2.10045 12.7285 2.37265 12.1374 2.69286C11.5298 3.02825 10.9538 3.42805 10.3784 3.81326C9.83396 4.18146 9.29077 4.56546 8.76216 4.98167C8.25178 5.38268 7.77178 5.83048 7.30758 6.27888C7.05239 6.53407 6.84399 6.83908 6.60399 7.12708C6.2048 7.59189 5.805 8.03969 5.421 8.5203C5.10262 8.92131 4.8134 9.33691 4.50961 9.75372C3.96702 10.4889 3.50343 11.2739 3.07204 12.0589C2.89583 12.3791 2.73604 12.6993 2.57624 13.0189C2.33624 13.4989 2.08044 13.9637 1.85685 14.4601C1.69644 14.7968 1.56885 15.165 1.47285 15.5332C1.24986 16.3182 1.02566 17.119 0.817858 17.9028C0.625858 18.6076 0.577858 19.344 0.562668 20.0646C0.546263 20.705 0.610061 21.3296 0.673858 21.97C0.690263 22.1304 0.594871 22.3224 0.785656 22.45C0.721858 22.6262 0.769858 22.7234 0.864643 22.7538C0.754061 22.93 0.913251 23.043 0.850061 23.2034C0.833656 23.235 0.898668 23.2988 0.929048 23.3468C0.929048 23.3954 0.913858 23.4592 0.929048 23.5072C0.946061 23.6512 1.00986 23.7952 1.00986 23.9556C1.00986 24.0674 1.10525 24.1956 1.13745 24.308C1.15325 24.3554 1.13745 24.4356 1.10525 24.4678C1.00925 24.5796 1.02505 24.6756 1.16905 24.74C1.24986 24.9478 1.21766 25.0438 1.20186 25.1411C1.23345 25.2845 1.18545 25.3325 1.20186 25.3647C1.32945 25.6211 1.37806 25.9091 1.39325 26.1971C1.39325 26.2615 1.42545 26.3259 1.45766 26.4055C1.47345 26.4055 1.45766 26.7093 1.45766 26.7093C1.53664 26.6619 1.60166 26.6461 1.68125 26.6139C1.72986 26.8217 1.77725 27.0149 1.84105 27.1911C1.92125 27.3187 1.92125 27.3819 1.88966 27.3977C1.95345 27.6857 1.98505 27.9579 2.09624 28.2301C2.09624 27.9263 2.06586 27.6225 2.01725 27.3339C2.24085 27.4141 2.43285 27.4937 2.56105 27.4937C2.57745 27.4451 2.59325 27.3819 2.60966 27.3497C2.51366 27.2543 2.43345 27.1103 2.33745 27.0143C2.36966 27.1419 2.33745 27.1905 2.33745 27.2391C2.27366 27.2063 2.19345 27.1741 2.11386 27.1419C2.17766 27.0629 2.24145 26.9821 2.33745 26.8867C2.33745 26.7421 2.25847 26.6133 2.03366 26.6297C2.12966 26.5981 2.22566 26.5507 2.33745 26.5179C2.51366 26.4225 2.32166 26.2463 2.32166 26.0221C2.33745 25.7505 2.17766 25.4783 2.12966 25.1897C2.04945 24.7419 2.06586 24.0693 2.01786 23.6209C1.92186 23.5407 1.84166 23.7485 1.82586 23.7649C1.87447 24.1489 1.92186 24.5329 1.95345 24.9175C1.85806 24.5973 1.79366 24.2449 1.71406 23.8603C1.69766 23.9727 1.68186 24.0207 1.68186 24.0851C1.60287 24.164 1.66606 24.2613 1.71406 24.3731C1.60226 24.3245 1.47406 24.3415 1.47406 24.3415V24.7899C1.31487 24.6295 1.26748 24.5019 1.18667 24.3889C1.15507 24.2613 1.13806 24.1337 1.10768 24.0061C1.13806 23.9253 1.10768 23.8773 1.10768 23.8299C1.09067 23.7169 1.07487 23.5893 1.05907 23.4447C1.07487 23.4289 1.04328 23.1895 1.04328 23.1895C1.17087 23.2047 1.25168 23.2198 1.33128 23.2198C1.17148 23.0133 1.28267 22.8845 1.34768 22.7562C1.37988 22.6918 1.49168 22.6773 1.52388 22.6116C1.65148 22.3716 1.85988 22.1802 1.85988 21.8752C1.85988 21.7312 1.90849 21.5714 1.92368 21.4268C1.95588 21.1546 1.98748 20.8824 2.00267 20.6102C2.03548 20.2578 2.00267 19.9054 2.08348 19.5694C2.21229 19.0104 2.37209 18.4496 2.54768 17.8888C2.67528 17.4878 2.81988 17.105 2.97907 16.704C3.21907 16.0794 3.44328 15.4548 3.74707 14.863C4.17847 13.9978 4.67426 13.1654 5.15426 12.3172C5.45806 11.7886 5.77766 11.2921 6.11426 10.7799C6.43325 10.2835 6.75224 9.77134 7.12105 9.30653C7.63325 8.65032 8.19285 8.04151 8.81624 7.49711C9.45604 6.92111 10.0636 6.3287 10.7508 5.8001C11.6452 5.10987 12.5894 4.50227 13.5956 3.97367C14.4116 3.54227 15.2586 3.20445 16.1062 2.88425C16.65 2.67645 17.2412 2.58045 17.8014 2.40425C18.4405 2.19584 19.0803 2.10045 19.7517 2.08405C20.1831 2.06764 20.5993 2.01964 21.0307 1.97164C21.4147 1.94126 21.7981 1.90845 22.2143 1.86045C22.1657 1.92425 22.1499 1.95645 22.1341 1.98805C21.9591 2.24445 21.7671 2.50086 21.5909 2.75665C21.4469 2.96506 21.2871 3.18926 21.1431 3.39706C20.8867 3.73427 20.6145 4.07027 20.3751 4.42268C20.0075 4.95129 19.6715 5.49569 19.2875 6.02369C18.9047 6.53589 18.4885 7.0165 18.0887 7.5123C17.5614 8.20131 17.0656 8.90551 16.5382 9.59392C16.0582 10.2501 15.5478 10.8759 15.0836 11.5321C14.668 12.1075 14.2998 12.717 13.9 13.3081C13.3088 14.1892 12.717 15.0532 12.1258 15.9342C11.6616 16.6062 11.198 17.263 10.7186 17.9356C10.6864 17.9842 10.6384 17.9988 10.591 18.031C10.4634 18.2388 10.4634 18.3512 10.4148 18.4472C10.2872 18.6872 10.1596 18.9272 10.015 19.152C9.93482 19.2796 9.82302 19.3914 9.72702 19.5196C9.71123 19.3276 9.98221 19.2316 9.85462 18.991C9.77563 19.1198 9.69482 19.2316 9.61523 19.3598L9.42323 19.7426C9.48702 19.7912 9.59943 19.8234 9.48702 19.9188C9.43842 19.9996 9.39102 20.095 9.34302 20.1758C9.42323 20.1272 9.47062 20.0798 9.51923 20.0154C9.51923 20.1916 9.42323 20.335 9.34302 20.479C9.27923 20.6066 9.11943 20.7038 9.00763 20.7992C9.02343 20.8156 9.13523 20.8636 9.15163 20.8794C9.29563 20.8308 9.34363 20.7518 9.36004 20.7992C9.40864 20.7354 9.45604 20.6874 9.47183 20.6394C9.53502 20.479 9.63102 20.3514 9.79082 20.287C9.85523 20.2548 9.90262 20.2068 9.95062 20.1594C10.4306 19.6624 10.9264 19.1824 11.3578 18.6538C12.0298 17.8366 12.6374 16.989 13.2778 16.1566C13.5488 15.8041 13.869 15.4517 14.1564 15.1151C14.2038 15.4833 14.1722 15.8351 14.1564 16.1724C14.1078 16.7641 14.0762 17.3572 14.0288 17.9648C14.0124 18.2048 14.0288 18.4448 14.0124 18.6854C14.0124 18.7492 13.9638 18.7972 13.9638 18.8616C13.9638 19.0214 14.0124 19.1976 14.0124 19.358C13.9638 19.9504 13.8994 20.5264 13.8514 21.1188C13.835 21.2464 13.8988 21.3752 13.9304 21.4876C13.8514 22.3516 14.0276 23.2648 13.883 24.1774C13.9948 24.0012 14.027 23.8894 14.027 23.7776C14.0422 23.6816 14.027 23.5856 14.027 23.4738V23.3134C14.0422 23.0248 14.106 22.721 14.0744 22.4324C14.0422 22.1122 14.0422 21.8084 14.1066 21.504C14.1388 21.3764 14.0908 21.216 14.171 21.0556V21.2956C14.1552 22.207 14.1874 23.1202 14.0598 24.0328C14.0434 24.113 14.1084 24.2576 13.9322 24.2412C13.7876 24.5292 13.9638 24.7376 13.8046 24.8974C13.7718 24.9296 13.835 25.0736 13.8514 25.1696C13.787 25.3622 13.787 25.3622 13.883 25.378C13.8988 25.7304 13.9316 26.05 13.9468 26.3866C14.202 25.779 14.0744 25.1532 14.1874 24.5286C14.2032 24.785 14.2196 25.0414 14.2032 25.3124C14.2032 25.7298 14.1874 26.1296 14.1716 26.5458C14.1716 26.626 14.1552 26.7062 14.1394 26.7864C14.0908 27.0112 14.0756 27.2348 13.9954 27.4426C13.9316 27.603 13.9638 27.8436 13.9638 28.035V28.6445C14.0276 28.9167 13.9474 29.0607 13.9954 29.2205C13.9468 29.3815 13.9316 29.4295 13.9468 29.4775L13.9954 29.7175C14.3156 29.6853 14.1716 29.9259 14.2992 30.0535C14.2032 30.1823 14.2354 30.2297 14.2354 30.2947C14.2354 30.4387 14.2202 30.5669 14.2038 30.7109C14.2038 31.0791 14.188 31.4473 14.188 31.7997C14.188 31.8483 14.2038 31.8951 14.2038 31.9431C14.2038 31.9759 14.188 32.3927 14.188 32.3927C14.2202 32.4401 14.188 32.4881 14.1394 32.5361C14.1242 32.5361 14.0762 30.5025 14.0762 30.5025H13.8362C13.8046 31.4625 13.8848 32.3271 13.7086 33.2245C13.5166 33.2397 13.4534 33.2719 13.2444 33.2719C12.7486 33.2719 12.2528 33.2719 11.757 33.2877C11.1652 33.2877 10.5904 33.3035 9.99801 33.3035C9.71123 33.3035 9.40743 33.3363 9.11943 33.3363C8.73543 33.3363 8.33563 33.2877 7.95285 33.2877C7.36044 33.2877 6.78505 33.3363 6.19325 33.3521C5.76186 33.3679 5.33047 33.3679 4.89907 33.3843C4.61047 33.3995 4.32186 33.4147 4.03507 33.4475C3.90748 33.4633 3.79507 33.5113 3.63528 33.5593C3.58667 33.5593 3.47548 33.5435 3.38009 33.5593C3.21907 33.5915 3.07629 33.6869 2.91528 33.7197C2.67528 33.7683 2.61148 33.8315 2.64307 34.0721V34.2319C2.62728 34.2635 2.99548 34.1833 2.99548 34.1833C2.96267 34.1833 2.94687 34.2793 2.89826 34.3595C3.02707 34.3109 3.10667 34.2793 3.18687 34.2477C3.42687 34.3601 3.63467 34.2963 3.82606 34.3449C4.44945 34.5041 5.08864 34.5697 5.72783 34.6323C6.14404 34.6645 6.54383 34.6809 6.95943 34.6961C7.55062 34.7283 8.14242 34.7605 8.73361 34.7605C9.2294 34.7605 9.7094 34.7119 10.204 34.7119C10.8906 34.7119 11.5796 34.7435 12.2668 34.7605C12.4108 34.7605 12.5706 34.7435 12.7304 34.7435H13.8969C14.9371 34.7119 15.9761 34.6949 17.0157 34.6645C17.6081 34.6475 18.2157 34.6159 18.8069 34.5995L20.6297 34.5509C21.3333 34.5351 22.0369 34.5351 22.7247 34.5205C23.2521 34.5205 23.7637 34.5023 24.2923 34.4871C24.8829 34.4713 25.4905 34.4233 26.0823 34.3917C26.4025 34.3753 26.7227 34.3431 27.0423 34.3115C27.4263 34.2799 27.8261 34.2325 28.2088 34.2161C28.7848 34.1833 29.3766 34.1675 29.9526 34.1353C30.672 34.0879 31.3914 34.0241 32.1266 34.0077C32.7986 33.9761 33.4858 33.9919 34.1578 33.9761C34.7496 33.9597 35.3414 33.9275 35.949 33.9117L36.9576 33.8631C36.9576 33.8631 37.6284 33.8473 37.9644 33.8145C38.5398 33.7829 39.1152 33.7191 39.6912 33.7033C40.0582 33.6869 40.4264 33.7033 40.794 33.6869C41.3851 33.6711 41.9927 33.6383 42.5845 33.6383C42.8075 33.6383 43.0475 33.6711 43.3355 33.6869C43.2079 33.7993 43.1277 33.8631 43.0317 33.9433C43.0955 33.9591 43.1593 33.9919 43.2237 34.0235C43.1277 34.0873 43.0475 34.1025 42.9685 34.1025C42.9357 34.1833 42.9035 34.2155 42.8713 34.3759H43.1593C43.0475 34.3759 42.9515 34.5199 42.8397 34.6159C42.7121 34.5831 42.5997 34.6159 42.5359 34.7921C42.6477 34.8553 42.6319 34.9033 42.6161 34.9683C42.4241 35.0315 42.2801 35.0959 42.3609 35.3037C42.2959 35.3353 42.2163 35.3675 42.1361 35.4155C42.0571 35.5431 41.9125 35.5753 41.9441 35.7515C42.0085 35.7667 42.0717 35.8001 42.1203 35.8147C42.0401 35.8469 41.9605 35.8949 41.8803 35.9265C41.5929 36.1027 41.7212 36.1829 41.7849 36.2631C41.7363 36.2953 41.6889 36.3269 41.6409 36.3433C41.6725 36.4873 41.7199 36.5195 41.7363 36.5195C41.6725 36.5669 41.5923 36.6313 41.4963 36.7115C41.4477 36.8555 41.3839 36.9193 41.3201 37.0153C41.2563 37.1113 41.2241 37.2401 41.1439 37.3355C40.8085 37.7043 40.5685 38.1375 40.1371 38.4249C39.9767 38.5373 39.8334 38.6813 39.6894 38.8259C39.4014 39.0975 39.1456 39.4019 38.8418 39.6583C38.4426 39.9943 38.0276 40.2981 37.595 40.6025C37.0682 40.9707 36.5408 41.3389 36.0128 41.6913C35.7248 41.8827 35.4052 42.0267 35.1014 42.2029C34.7976 42.3791 34.5096 42.5395 34.2058 42.7151C34.0138 42.8427 33.8376 43.0189 33.6298 43.1161C33.1024 43.341 32.5422 43.5323 31.999 43.7408C31.4704 43.9656 31.0876 44.157 30.6878 44.301C30.3202 44.4286 29.9362 44.5258 29.5528 44.6048C29.4253 44.6376 29.2806 44.6048 29.1366 44.6212C28.8644 44.6698 28.5928 44.7342 28.3206 44.7658C27.6171 44.8618 26.9135 44.9262 26.2105 45.0222C25.7943 45.0708 25.3945 45.1498 24.9789 45.1984C24.6915 45.2142 24.3877 45.1826 24.0997 45.1826C23.8919 45.1826 23.6683 45.2312 23.4599 45.199C23.1245 45.1504 22.7885 45.0714 22.4525 45.007C22.3735 44.9912 22.2605 44.9584 22.1973 44.9912C22.0697 45.0556 21.9567 44.9596 21.8285 44.9912C21.7495 45.0076 21.6693 44.9426 21.5891 44.9426C21.5247 44.9274 21.4445 44.9596 21.3643 44.9426C21.1881 44.8952 21.0289 44.8314 20.8357 44.8472C20.6455 44.863 20.4529 44.767 20.2463 44.7196C19.9577 44.6552 19.6873 44.592 19.3981 44.527C19.2869 44.4948 19.1915 44.4468 19.0791 44.383C18.6629 44.383 18.3907 44.3672 18.1349 44.2706C17.9113 44.1916 17.7035 44.0792 17.4635 44.1114C17.4003 44.1272 17.3523 44.0956 17.2873 44.0956C17.2387 44.0312 17.1919 43.903 17.1445 43.903C16.8249 43.9194 16.6329 43.6478 16.3607 43.567C16.2174 43.5184 16.1056 43.3586 15.9616 43.3106C15.6092 43.1666 15.3224 42.8628 14.9226 42.8148C14.795 42.7984 14.6674 42.7346 14.5228 42.6872C14.5714 42.7504 14.6018 42.7984 14.6504 42.8464C14.1868 42.6216 13.7554 42.3664 13.3234 42.1258C13.2602 42.11 13.2122 42.0468 13.1642 42.014L12.7328 41.726C12.4928 41.7746 12.3968 41.6774 12.3318 41.6458C11.9004 41.342 11.4052 41.1494 10.989 40.8134C10.8128 40.6688 10.6062 40.5728 10.4786 40.3966C10.2538 40.1244 9.98221 39.9324 9.67842 39.7726C9.43902 39.645 9.21543 39.5004 8.99183 39.3564C8.87943 39.2761 8.76702 39.1801 8.76702 39.0039C8.76702 38.8915 8.71963 38.7791 8.57563 38.8435C8.51183 38.7475 8.44804 38.6357 8.36783 38.6035C8.17583 38.5246 8.04824 38.3787 7.90424 38.2511C7.76024 38.1235 7.64905 37.9473 7.47285 37.8835C7.15264 37.7559 6.96064 37.4837 6.76925 37.2595C6.32085 36.7309 5.92105 36.1537 5.50545 35.5947C5.47325 35.5461 5.40945 35.5139 5.36145 35.4659C5.42525 35.6421 5.50545 35.7861 5.58505 35.9459C5.42586 35.8821 5.31406 35.7697 5.21806 35.6579C5.20166 35.6743 6.32085 37.5153 6.32085 37.5153C6.41806 37.6593 6.49705 37.8039 6.59305 37.9479C6.35305 37.9637 6.19325 37.8355 6.11305 37.6915C5.96966 37.4364 5.80925 37.2759 5.48966 37.3088C5.45806 37.1957 5.42586 37.0675 5.41067 36.9564C5.34566 36.9564 5.29826 36.9564 5.18586 36.9399C5.41067 37.2924 5.60206 37.5962 5.80986 37.9486C5.72905 37.8999 5.68226 37.8684 5.64885 37.8526C5.93624 38.1564 6.14404 38.541 6.51163 38.7336C6.59183 39.1012 7.00743 39.2774 7.10343 39.6298C7.02444 39.6134 6.95882 39.5976 6.87862 39.5812C6.75102 39.4214 6.60702 39.2616 6.46363 39.0854C6.49523 39.1972 6.54262 39.2932 6.60702 39.3734C6.79902 39.6134 6.97523 39.8534 7.19882 40.0618C7.27902 40.1432 7.39082 40.1754 7.39082 40.3194C7.51842 40.3832 7.56702 40.3984 7.61442 40.3984C7.64723 40.4956 7.59923 40.6396 7.79062 40.6074C7.91821 40.8474 8.04581 40.8474 8.22201 40.7678C8.43042 40.9762 8.54282 40.9926 8.68621 40.865C8.68621 40.944 8.70201 41.0242 8.70201 41.0886C8.76581 41.0564 8.75062 41.0084 8.75062 40.9282C8.82961 40.992 8.87821 41.0242 8.90981 41.0558C9.06961 41.2806 9.21361 41.4884 9.4372 41.6646C9.741 41.921 10.0132 42.1932 10.3 42.4332C10.8602 42.898 11.4848 43.2826 12.1076 43.6344C12.8756 44.067 13.6114 44.5312 14.3946 44.9468C15.3376 45.4438 16.3449 45.7804 17.3839 46.0204C17.7679 46.1007 18.1355 46.1803 18.5201 46.2756C18.8543 46.3729 19.1909 46.5169 19.5269 46.5965C20.0385 46.7089 20.5659 46.8049 21.0775 46.9003C21.1887 46.9167 21.3023 46.9331 21.4299 46.9489C21.5727 46.9811 21.7483 46.9167 21.7805 46.9653C21.8607 47.0929 21.9245 47.0285 22.0205 47.0127C22.1323 46.9805 22.2605 46.9805 22.3881 46.9805C22.8359 46.9962 23.2673 47.0923 23.7151 47.0607C23.8123 47.0607 23.9557 46.9798 24.0359 47.1396C24.1793 47.0758 24.2595 47.0758 24.3233 47.0607C24.3403 47.204 24.3233 47.204 24.2929 47.2198C24.2601 47.2356 24.2121 47.252 24.1483 47.3C24.7237 47.4118 25.2675 47.4276 25.7463 47.3C26.5787 47.3638 27.2981 47.2678 27.9859 47.0278C28.0497 47.108 28.0977 47.2198 28.1937 47.06C28.2253 47.0114 28.3055 46.995 28.3699 46.9792C28.5133 46.947 28.6895 46.8832 28.8171 46.9306C28.9617 46.9792 29.0097 46.8516 29.1208 46.8516C29.3135 46.8516 29.4891 46.8352 29.6653 46.803C29.7613 46.7872 29.8573 46.7392 29.9691 46.707C29.8415 46.642 29.7139 46.6262 29.6166 46.6262C29.8093 46.5302 29.9848 46.45 30.1611 46.371C30.1288 46.4184 30.0966 46.4822 30.0335 46.4822H30.2564C30.2078 46.4822 30.144 46.6262 30.0644 46.7222C30.6392 46.5782 31.1666 46.45 31.6788 46.3212C31.5026 45.9858 31.8702 46.0982 31.9984 45.9056C31.8386 45.9542 31.6788 46.0016 31.5184 46.0332C32.0622 45.7616 32.6218 45.5216 33.165 45.2816C33.086 45.3776 32.9888 45.4256 32.846 45.5064C32.942 45.5216 33.0058 45.5216 33.0538 45.5368C33.309 45.6176 33.2458 45.3776 33.3254 45.233C33.6292 45.233 33.7568 45.1856 33.9008 45.137C34.0606 45.0884 34.2204 45.041 34.3808 44.9772C34.636 44.8654 34.876 44.722 35.1318 44.5944C35.1804 44.5774 35.2594 44.5944 35.3238 44.5944C35.5 44.4814 35.5632 44.3854 35.6112 44.4012C35.836 44.4334 35.994 44.3526 36.0584 44.146C36.1702 44.0652 36.2504 44.0014 36.33 43.9528C36.6812 43.7608 37.0165 43.5688 37.3689 43.3768C37.4965 43.3768 37.5609 43.3768 37.5925 43.3604C37.8016 43.2632 37.9936 43.1526 38.1849 43.0402C38.1363 43.0244 38.0252 42.9612 38.0252 42.9612C38.1843 42.9284 38.2317 42.9126 38.3289 42.8804C38.7117 42.4308 39.2403 42.127 39.6395 41.7746C39.8157 41.7588 39.8157 41.7108 39.8157 41.6792C39.8789 41.599 39.9433 41.503 40.0223 41.4386C40.3747 41.1184 40.7575 40.8462 41.0777 40.5102C41.5413 40.0448 41.9891 39.5641 42.4047 39.0677C42.7875 38.6193 43.1727 38.1715 43.4923 37.6751C43.9401 36.9867 44.3235 36.2819 44.7233 35.5607C45.0113 35.0491 45.2671 34.5369 45.5557 34.0247C45.5861 33.9761 45.6511 33.9123 45.6991 33.9123C46.1305 33.8637 46.5631 33.8333 46.9787 33.7847C47.0747 33.7689 47.1865 33.7057 47.2825 33.6571C47.2339 33.5769 47.2023 33.4809 47.1549 33.4007C47.0905 33.3035 46.9945 33.2245 46.9301 33.1273C46.8669 33.0483 46.8189 32.9511 46.7709 32.8557C46.7223 32.7767 46.6749 32.7123 46.6269 32.6309C46.5297 32.4547 46.4343 32.2785 46.3535 32.0877C46.3377 32.0391 46.3048 31.9601 46.3219 31.9115C46.6099 31.2875 46.7217 30.6149 46.9933 29.9903C47.2648 29.3499 47.3457 28.6293 47.4733 27.9409C47.5851 27.2847 47.6495 26.6285 47.7284 25.9722C47.777 25.508 47.8408 25.0596 47.856 24.5954C47.9533 23.859 47.9204 23.17 47.9046 22.481C47.8888 21.8734 47.856 21.2488 47.8257 20.64L47.8238 20.6382ZM7.70738 40.3473C7.59558 40.2197 7.49958 40.0751 7.38778 39.9475L7.43639 39.8989C7.61077 40.0915 7.78697 40.2835 7.96257 40.4919C7.86657 40.4433 7.75477 40.4117 7.70738 40.3473ZM7.96257 40.4919C8.01118 40.4755 8.05978 40.4755 8.10718 40.4597C8.15578 40.5399 8.18738 40.6359 8.23477 40.7319C8.01118 40.7155 7.89938 40.6195 7.96318 40.4919H7.96257ZM24.5924 47.1044V47.0558C24.8962 47.0242 25.1836 46.992 25.4874 46.9604V47.0072C25.1836 47.0558 24.8962 47.0862 24.5924 47.1032V47.1044ZM28.6208 46.6882C28.3978 46.7368 28.1578 46.769 27.9342 46.8012C27.854 46.817 27.758 46.8972 27.7264 46.7526C27.6942 46.769 27.662 46.769 27.6304 46.7854C27.7094 47.0248 27.902 46.8328 28.0618 46.9288C27.7094 46.9774 27.3752 47.009 27.0386 47.0564V47.0248C27.1358 47.009 27.247 46.9926 27.3424 46.9762V46.9288C27.1832 46.9124 27.0234 46.8966 26.8624 46.8966C26.8156 46.8966 26.7512 46.961 26.7032 46.9768C26.6394 46.9926 26.5756 47.009 26.4954 47.009C26.2238 47.0248 25.9522 47.0248 25.6958 47.0406C25.6794 47.0406 25.6472 47.0248 25.6314 47.0248V46.9762C26.7026 46.8328 27.758 46.6888 28.8292 46.5448C28.8456 46.5764 28.8456 46.6086 28.8614 46.6402C28.7654 46.6402 28.7016 46.6736 28.6214 46.6888L28.6208 46.6882ZM28.8614 46.529C29.2296 46.4804 29.5662 46.4488 29.9174 46.4014C29.1822 46.6092 28.9422 46.6408 28.862 46.529H28.8614ZM14.9347 14.2019C15.4451 13.4971 15.9737 12.7923 16.4853 12.0723C16.6451 11.8627 16.7727 11.6385 16.9325 11.4307C16.9811 11.3663 17.0449 11.3347 17.1245 11.2703L17.1087 11.2399C17.1725 11.1591 17.2363 11.0941 17.2685 11.0309C17.3499 10.9033 17.3979 10.7587 17.4617 10.6147C17.4775 10.5843 17.5255 10.5521 17.5255 10.5521C17.7503 10.6639 17.7503 10.4245 17.8293 10.3437C17.9733 10.1833 18.1173 10.0077 18.2449 9.84729C18.3409 9.71969 18.4369 9.60729 18.5171 9.46329C18.5329 9.41468 18.4849 9.33569 18.4685 9.27068H18.4211C18.4697 9.23908 18.5171 9.19169 18.5651 9.15888C18.5809 9.15888 18.5809 9.15888 18.5967 9.14308C18.6927 8.99848 18.7887 8.85448 18.8847 8.72627C19.0761 8.47108 19.2839 8.21468 19.5075 7.99108C19.4759 8.07007 19.4437 8.15088 19.4115 8.21468C19.4279 8.21468 19.4279 8.23108 19.4437 8.23108C19.6357 7.97468 19.8435 7.73468 20.0355 7.47767C20.0191 7.46248 20.0033 7.44607 19.9869 7.44607C19.9079 7.52627 19.8435 7.60648 19.7633 7.68668C19.7475 7.67027 19.7317 7.65448 19.7147 7.65448C19.8757 7.44607 20.0355 7.23827 20.1947 6.99827C20.2269 7.04688 20.2591 7.11007 20.3223 7.23827C20.3873 7.07848 20.4511 6.96668 20.4985 6.85427C20.4511 6.90288 20.3873 6.95027 20.3393 6.99888L20.2907 6.95027L20.5787 6.51888C20.8825 6.08627 21.1863 5.63787 21.4901 5.20526C21.6025 5.04546 21.7453 4.91726 21.8425 4.75686C22.1463 4.14926 22.6263 3.66805 22.9933 3.10784C23.0735 2.99605 23.1853 2.90005 23.2813 2.80405C23.3602 2.70683 23.4253 2.73964 23.4891 2.81984C23.9204 3.36425 24.3518 3.92445 24.7832 4.46886C25.104 4.86987 25.4236 5.25265 25.7274 5.66946C26.095 6.18227 26.4468 6.69448 26.815 7.20668C27.2306 7.79908 27.6462 8.39149 28.046 8.99908C28.6536 9.8965 29.229 10.7933 29.8366 11.6895C30.2844 12.3457 30.7322 12.9867 31.1636 13.6429H30.347C29.596 13.6277 28.828 13.5639 28.077 13.5955C27.0538 13.6441 26.0148 13.7559 24.9916 13.8361C23.6962 13.9486 22.3851 13.9637 21.0909 13.9637C20.6261 13.9637 20.1625 14.0288 19.6995 14.061C19.1393 14.0926 18.5955 14.1248 18.0359 14.1399C17.3797 14.1728 16.7417 14.1886 16.0855 14.205C15.7173 14.2208 15.3339 14.205 14.9341 14.205L14.9347 14.2019ZM33.2738 21.566V21.7106C33.258 21.7106 33.2422 21.727 33.21 21.727C33.1462 21.5022 33.0824 21.2616 33.0022 21.0374C32.8424 20.5726 32.6662 20.1077 32.3782 19.6921C32.0574 19.2444 31.7706 18.7808 31.4498 18.3159C31.3708 18.2035 31.2578 18.1075 31.1618 18.0121C30.8258 17.6433 30.4898 17.2587 30.0584 16.9871C29.4186 16.5861 28.763 16.2501 28.0594 15.9615C27.8674 15.8825 27.6918 15.7853 27.5004 15.6735H27.8832L30.6174 15.6249C31.2092 15.6097 31.7852 15.6097 32.3763 15.5775C32.5197 15.5775 32.5999 15.6261 32.6801 15.7537C32.8235 15.9937 32.9675 16.2337 33.1273 16.4743C33.1437 16.5059 33.1759 16.5533 33.1759 16.6019C33.1759 16.9543 33.1759 17.3225 33.1917 17.6749C33.2069 18.0431 33.2403 18.3955 33.2549 18.7637C33.2549 19.1319 33.2227 19.5159 33.2391 19.8999C33.2555 20.445 33.2713 21.0058 33.2713 21.5648L33.2738 21.566ZM16.0691 16.2046C16.8207 16.1724 17.5395 16.1244 18.2759 16.0921C18.8501 16.0599 19.4425 16.0435 20.0173 16.0119C20.2573 15.9968 20.4815 15.9816 20.7208 16.0119C20.4657 16.1408 20.2093 16.269 19.9857 16.4288C19.6977 16.6208 19.4267 16.8766 19.1381 17.085C18.8495 17.2928 18.5937 17.5492 18.3543 17.8214C18.0505 18.189 17.7145 18.5092 17.3943 18.8616C17.1695 19.118 16.9143 19.358 16.7229 19.6302C16.4513 19.9826 16.2113 20.3654 15.9555 20.7664C16.0357 19.245 16.1317 17.7406 16.0673 16.2033L16.0691 16.2046ZM26.5106 31.6071C25.9984 31.7347 25.4716 31.8793 24.943 31.9431C24.4958 32.0075 24.0316 31.9917 23.568 31.9917C23.1512 31.9917 22.7514 31.9759 22.3358 31.9431C21.8722 31.8957 21.4086 31.8477 20.9608 31.6393C20.5762 31.4631 20.177 31.3033 19.7943 31.1107C19.409 30.9187 19.0257 30.6951 18.737 30.3427C18.5305 30.0857 18.2419 29.8779 17.9861 29.6537C18.0347 29.8457 18.1459 30.0061 18.3221 30.1179C18.2419 30.2139 18.1301 30.1665 17.9697 29.9095C17.9223 29.9417 17.8743 29.9581 17.8421 29.9739C17.8907 29.8615 17.9381 29.7491 17.9861 29.6537C17.9223 29.5261 17.8421 29.3815 17.7783 29.2527C17.6507 29.0449 17.5231 28.8213 17.4107 28.6129C17.3785 28.5643 17.3785 28.5169 17.3469 28.4689C17.2667 28.3729 17.1865 28.2763 17.1221 28.1803C16.9945 27.9889 16.8827 27.7811 16.7229 27.5885C16.7229 27.6371 16.7393 27.6845 16.7393 27.7489C16.7229 27.7489 16.7071 27.7647 16.7071 27.7647L16.3705 26.948C16.3547 26.948 16.3547 26.948 16.3389 26.9638L16.6263 28.0211C16.6105 28.0211 16.5947 28.0363 16.5777 28.0363C16.5309 27.9731 16.4829 27.9087 16.4501 27.8297C16.4185 27.7009 16.3225 27.7009 16.2435 27.7489C16.1949 27.7811 16.1627 27.8929 16.1791 27.9409C16.2915 28.2131 16.4191 28.4853 16.5473 28.7575C16.5789 28.8535 16.6111 28.9337 16.6591 29.0297C16.6755 29.0619 16.7235 29.0935 16.7235 29.1415C16.7879 29.2691 16.8359 29.3967 16.9155 29.5097C17.0595 29.7017 17.2193 29.8937 17.3633 30.0857C17.5061 30.2777 17.6337 30.4867 17.7619 30.6781C17.7777 30.7103 17.8257 30.7103 17.8408 30.7267C17.9217 30.9667 18.1933 31.1423 18.3853 31.0463C18.4339 31.4145 18.833 31.5427 18.9928 31.8951C18.8008 31.8149 18.6575 31.7511 18.5293 31.6867C18.5128 31.7025 18.5128 31.7183 18.4964 31.7505C18.6884 31.8465 18.8804 31.9425 19.0554 32.0543C19.2164 32.1515 19.3762 32.2469 19.5202 32.3581C19.7122 32.5343 19.9364 32.6315 20.2068 32.6947C20.1922 32.6461 20.1764 32.6297 20.1764 32.6297C20.6236 32.8381 21.0878 33.0623 21.439 33.2373C19.776 33.2701 18.0013 33.3023 16.1621 33.3345C16.1621 33.0307 16.1463 32.7421 16.1463 32.4377C16.1463 32.3101 16.1779 32.1977 16.1615 32.0695C16.1128 31.3343 16.1128 30.5967 16.0175 29.876C15.9221 29.108 15.9221 28.3552 15.9385 27.5854C15.9537 27.1704 15.9221 26.7384 15.9057 26.3216C15.9057 25.7614 15.9057 25.2158 15.9227 24.6568C15.9227 24.5766 15.9549 24.5128 15.9871 24.432H16.0357C16.0509 24.4648 16.0357 24.5128 16.0661 24.5292C16.1147 24.5778 16.1949 24.6568 16.2271 24.641C16.3225 24.5766 16.4665 24.5134 16.4987 24.4162C16.5777 24.2248 16.6105 24.0164 16.6105 23.8244C16.6105 23.681 16.6749 23.585 16.7381 23.4884C16.7709 23.4398 16.7867 23.3924 16.8189 23.3286C16.7551 23.28 16.6913 23.2484 16.6111 23.1846C16.6755 23.0084 16.6597 22.8 16.8997 22.7046C16.9313 22.6882 16.9313 22.6074 16.9483 22.56C16.9635 22.4306 16.9787 22.2866 16.9957 22.159C17.0273 22.2076 17.0443 22.2228 17.0747 22.2544C17.0917 22.2228 17.1075 22.2058 17.1075 22.2058C17.1075 22.1426 17.0917 22.0144 17.1075 22.0144C17.2995 21.9822 17.2193 21.7744 17.3153 21.6784C17.3305 21.6614 17.2989 21.6134 17.2989 21.5812C17.2989 21.5496 17.2989 21.5022 17.3147 21.5022C17.5377 21.4536 17.5061 21.2136 17.6501 21.1012C17.6987 21.069 17.7139 21.0222 17.7777 20.9414C17.9053 21.165 17.6817 21.2774 17.6659 21.4372C17.9368 21.2774 18.017 20.8934 17.8573 20.781C17.921 20.7324 17.9848 20.6692 18.0335 20.6048C18.2097 20.4128 18.4004 20.2366 18.5608 20.0446C18.6733 19.9012 18.737 19.725 18.8488 19.581C18.9133 19.5008 19.0408 19.437 19.1368 19.3884C19.4248 19.2292 19.6958 19.053 19.872 18.7808C19.9042 18.7486 19.9522 18.717 19.9996 18.6848C20.0482 18.6526 20.1442 18.6526 20.16 18.6046C20.1764 18.573 20.1284 18.4928 20.0962 18.4448C20.1594 18.4126 20.2238 18.3488 20.3514 18.2844C20.3028 18.3804 20.2876 18.4448 20.2554 18.5092L20.3344 18.5881C20.479 18.4764 20.7026 18.3488 20.8466 18.2528C20.8466 18.2376 20.7664 18.1738 20.7664 18.1738C20.671 18.2224 20.527 18.3014 20.3836 18.3658C20.414 18.3172 20.414 18.2856 20.4322 18.2698C20.6552 18.1258 20.8788 17.9818 21.1188 17.8688C21.6778 17.6136 22.238 17.3572 22.7976 17.1172C22.8936 17.0686 23.0224 17.1014 23.1336 17.1014C23.181 17.1014 23.2126 17.1014 23.2612 17.0856C23.5164 17.0054 23.7728 16.9252 24.0286 16.8608C24.1398 16.8292 24.2674 16.8134 24.381 16.8134C24.8592 16.8286 25.3392 16.8286 25.8186 16.8608C26.0264 16.8766 26.2184 16.9246 26.4104 16.9883C26.6498 17.0692 26.9056 17.181 27.1298 17.2921C27.4014 17.438 27.6572 17.5972 27.9136 17.7734C28.3772 18.0772 28.8085 18.4138 29.2721 18.686C29.7199 18.9582 30.0717 19.3264 30.3597 19.7432C30.7121 20.239 31.1113 20.6874 31.2711 21.2956L31.5105 22.3528C31.5591 22.5448 31.6709 22.7368 31.6229 22.9604C31.5421 23.3614 31.4783 23.7776 31.4145 24.178C31.3829 24.339 31.3507 24.5 31.3671 24.658C31.3975 25.1563 31.2061 25.5876 31.0147 26.036C30.9503 26.18 30.8543 26.3247 30.7747 26.4845C30.7905 26.5003 30.8865 26.5489 30.9023 26.5489L31.0463 26.2609C31.0627 26.2609 31.0627 26.2609 31.0785 26.2773C30.9983 26.5009 30.9345 26.7415 30.8537 26.9657C30.6629 27.4621 30.4709 27.9743 30.2309 28.4543C30.1033 28.7265 29.8785 28.9507 29.7193 29.2077C29.5601 29.4313 29.4319 29.6713 29.2721 29.8797C29.1281 30.0559 28.9847 30.2321 28.7921 30.3597C28.3607 30.6799 27.9129 31.0001 27.4494 31.2565C27.162 31.4327 26.826 31.5287 26.5064 31.6089L26.5106 31.6071ZM17.9879 30.7565L17.9721 30.7729C17.9387 30.7571 17.8907 30.7413 17.8591 30.7091L17.4751 30.1318C17.4435 30.0845 17.4265 30.0365 17.4435 29.9727C17.6197 30.2449 17.7959 30.5013 17.9873 30.7565H17.9879ZM27.9342 32.9499C28.653 32.6461 29.2448 32.2147 29.7874 31.7177C29.8682 31.6375 29.9478 31.5579 30.0438 31.4929C30.7158 31.0773 31.2104 30.5007 31.6588 29.8603C32.1704 29.1238 32.5064 28.2914 32.9226 27.507C32.9542 27.4426 32.9858 27.3794 33.018 27.3308C32.9858 29.156 33.1942 30.9491 33.4336 32.7585C31.6272 32.8223 29.788 32.8861 27.9336 32.9505L27.9342 32.9499ZM44.1467 32.4699C44.1309 32.5021 44.0981 32.5343 44.0829 32.5671C44.0665 32.5343 44.0665 32.4863 44.0507 32.4213C43.9547 32.6783 43.7469 32.5501 43.6029 32.5501C42.7401 32.5665 41.8603 32.5665 40.9963 32.5665C40.1651 32.5665 39.3181 32.5665 38.4869 32.5811C38.2147 32.5811 37.9267 32.6449 37.6545 32.6613C36.9995 32.6929 36.3439 32.7099 35.6883 32.7251C35.6397 32.7251 35.5923 32.6461 35.5121 32.5817C35.4963 32.6139 35.4635 32.6619 35.4161 32.7257C35.3991 32.6941 35.3675 32.6625 35.3353 32.6145C35.3195 32.6631 35.3031 32.7105 35.2867 32.7421H35.2405C35.2083 32.5185 35.1445 32.3107 35.1445 32.0859C35.1445 31.6059 35.1932 31.1259 35.2083 30.6447C35.2247 30.4211 35.2083 30.2133 35.2083 30.0043C35.2727 30.0529 35.3207 30.0851 35.3845 30.1318C35.4161 30.0693 35.4483 30.0213 35.4805 29.9739C35.4805 29.9739 35.4483 29.9569 35.4161 29.9253C35.4465 29.9089 35.4793 29.8767 35.4793 29.8609C35.4951 29.8123 35.5279 29.7649 35.5279 29.7333C35.5279 29.6209 35.4951 29.5249 35.4793 29.4295C35.4951 29.4295 35.5109 29.4295 35.5279 29.4125L35.6233 29.8925H35.6719C35.6075 29.7813 35.8153 29.6847 35.6397 29.5571C35.6239 29.5407 35.6555 29.4447 35.6555 29.3967C35.6069 29.3013 35.5765 29.2053 35.5279 29.0771C35.5437 29.0613 35.5917 29.0449 35.6397 29.0285C35.5759 28.9969 35.5279 28.9653 35.4799 28.9495C35.6397 28.8049 35.6397 28.7247 35.4957 28.5649C35.5285 28.5497 35.5601 28.5497 35.5601 28.5345C35.5601 28.3899 35.5601 28.2459 35.5285 28.1031C35.4963 27.9415 35.5772 27.7507 35.3365 27.6535C35.3523 27.7021 35.3687 27.7337 35.4003 27.7811C35.4003 27.7811 35.3517 27.7975 35.3043 27.8297C35.0965 27.6371 35.2254 27.38 35.1767 27.0927C35.2885 27.1249 35.3687 27.1571 35.4483 27.1899C35.4161 27.0769 35.3365 26.9487 35.2885 26.8047H35.2235V25.7474C35.2235 25.7638 35.3353 25.7638 35.3997 25.7803C35.3997 25.7638 35.4149 25.748 35.4149 25.7316C35.3663 25.6678 35.3025 25.604 35.2387 25.5238L35.2709 25.4916C35.1433 25.3325 35.2071 25.1089 35.2071 25.0602V23.9392C35.3675 24.0996 35.1281 24.3074 35.3675 24.4034V24.2436H35.3511C35.3353 24.0036 35.3353 23.7636 35.3195 23.523H35.2879C35.2715 23.5558 35.2715 23.5716 35.2551 23.6038H35.2235L35.3195 19.7772C35.4793 19.985 35.6549 20.1782 35.7667 20.3848C36.1349 21.058 36.6143 21.6346 37.0621 22.2428C37.4461 22.7714 37.7973 23.3474 38.1497 23.8918C38.5811 24.548 38.9967 25.2043 39.4287 25.8605C39.7483 26.3575 40.0849 26.8539 40.4191 27.3345C40.7229 27.7659 41.0437 28.1827 41.3633 28.5995C41.6343 28.9677 41.9223 29.3359 42.1939 29.7041C42.5141 30.1525 42.8337 30.6003 43.1539 31.0329C43.3131 31.2565 43.4893 31.4807 43.6642 31.7049C43.7615 31.8325 43.9048 31.9297 44.0008 32.0087C43.9857 32.0087 43.9693 32.0087 43.9377 31.9929C43.9863 32.0567 44.0166 32.1047 44.0495 32.1369C44.2257 32.2329 44.2415 32.3289 44.1455 32.4735L44.1467 32.4699ZM44.9621 28.4683V28.3558C44.9621 28.3874 44.9779 28.4348 44.9621 28.4676V28.4683ZM45.5059 21.408C45.4895 21.408 45.3941 21.3108 45.3783 21.295C45.3619 21.3436 45.3783 21.391 45.3461 21.4554C45.3297 21.408 45.2185 21.4238 45.2185 21.3764C45.2021 21.6 45.3139 21.8242 45.2975 22.0484C45.3461 22.0162 45.5375 21.9998 45.5855 21.9524C45.6019 21.9682 45.6341 21.984 45.6499 21.984C45.3297 22.2246 45.4099 22.464 45.5539 22.7374C45.5855 22.8006 45.6815 22.9288 45.5855 23.057C45.5539 23.0892 45.6019 23.1846 45.6177 23.2654H45.6644V23.2958L45.5204 23.3444C45.4888 23.2958 45.2975 23.201 45.2975 23.1196V23.9374C45.4573 23.986 45.4573 24.2096 45.521 24.322C45.5545 24.2734 45.5697 24.2412 45.5861 24.1944L45.6025 24.209C45.5861 24.305 45.5703 24.401 45.5381 24.4976C45.5065 24.641 45.4743 24.7692 45.4591 24.9132C45.4591 24.929 45.4895 24.9618 45.4895 24.977C45.3145 25.378 45.4105 25.8252 45.3467 26.2408C45.2981 26.5446 45.3467 26.8666 45.3145 27.1862C45.2817 27.4584 45.2173 27.7464 45.1541 28.0186C45.1377 28.0672 45.1055 28.0824 45.0265 28.1146C45.0581 27.9226 45.0423 27.7944 45.0101 27.6182C44.9931 27.6182 44.7853 27.5064 44.7688 27.5064C44.7688 27.7312 44.8964 28.035 44.945 28.2902C44.8964 28.2744 44.7051 28.1626 44.6899 28.1626C44.6571 28.3546 44.657 28.611 44.6413 28.8188C44.6248 28.9792 44.4815 29.1226 44.465 29.2988C44.465 29.396 44.5768 29.4592 44.561 29.6196H44.6886C44.6886 29.3 44.8333 29.012 44.8333 28.6754H44.8806C44.897 28.7076 44.945 28.7398 44.9293 28.7556C44.897 28.9318 44.832 29.1238 44.8491 29.3C44.8491 29.396 44.928 29.492 44.8977 29.6038C44.8648 29.7011 44.8491 29.7965 44.8326 29.9405C44.8162 29.8603 44.8004 29.8287 44.8004 29.7807C44.7846 29.7807 44.6406 29.7643 44.6242 29.7643C44.6084 29.8603 44.7366 29.9563 44.7202 30.0365C44.7044 30.0523 44.6886 30.0523 44.6564 30.0687L44.129 29.2994C43.7122 28.6918 43.2966 28.0824 42.881 27.4584C42.7686 27.298 42.6726 27.1382 42.5924 26.9784C42.0973 26.129 41.5535 25.3124 40.9459 24.528C40.4829 23.9362 40.1135 23.2946 39.6821 22.6718C39.2835 22.0794 38.8837 21.5028 38.4839 20.9098C38.3399 20.7184 38.1643 20.5422 38.0361 20.3338C37.6211 19.6776 37.2523 19.005 36.8379 18.3488C36.4855 17.8037 36.1027 17.2751 35.7345 16.7471C35.6069 16.5709 35.4793 16.3783 35.3505 16.1863C35.3347 16.1559 35.3189 16.1237 35.3189 16.0757C35.2867 15.7233 35.2545 15.3709 35.2387 15.0349C35.2387 14.7147 35.2709 14.3945 35.2709 14.0579V13.7699C35.2709 13.6897 35.2861 13.6259 35.2861 13.5451C35.3013 13.5299 35.3177 13.4977 35.3335 13.4819C34.8699 13.4819 34.3899 13.4649 33.9263 13.4819C33.6225 13.4971 33.4627 13.3689 33.2549 13.1447C32.6473 12.4563 32.1995 11.6719 31.6721 10.9355C31.1763 10.2307 30.6647 9.54167 30.1532 8.85326C29.7369 8.29306 29.3207 7.74865 28.9058 7.18845C28.4416 6.54805 27.9944 5.90764 27.5144 5.26724C26.9384 4.49924 26.3466 3.73002 25.7554 2.96202C25.482 2.60962 25.1782 2.27362 24.8744 1.90481C25.0828 1.93762 25.2754 1.96921 25.4668 1.98562L26.2348 2.03422C26.8102 2.08101 27.3856 2.11321 27.9603 2.1922C28.4403 2.25721 28.9203 2.35321 29.4161 2.43281C30.4721 2.60901 31.5111 2.89762 32.5185 3.23362C33.1103 3.42562 33.6851 3.68202 34.2623 3.92202C35.5565 4.45063 36.7881 5.09103 38.0033 5.76303C38.3861 5.97144 38.6109 6.30744 38.8977 6.61184C39.3139 7.04445 39.7301 7.47645 40.1292 7.92425C40.5922 8.45286 41.0236 8.99726 41.472 9.54167C41.8712 10.0217 42.2862 10.5017 42.6872 10.9829C42.8148 11.1269 42.912 11.3031 43.0226 11.4629C43.2778 11.8475 43.5664 12.2163 43.79 12.6319C43.9492 12.9369 44.0452 13.2893 44.157 13.6253C44.3162 14.1217 44.4766 14.6017 44.637 15.0981C44.7482 15.4663 44.8436 15.8515 44.9238 16.2343C44.9882 16.4913 44.9724 16.7629 45.0514 17.0181C45.1486 17.3559 45.0514 17.7229 45.1486 18.0601C45.1638 18.0924 45.179 18.1404 45.196 18.1726C45.2598 18.2357 45.3078 18.3001 45.2118 18.3961C45.1966 18.4119 45.1966 18.4751 45.2118 18.5237C45.2446 18.4921 45.2604 18.4599 45.2926 18.4119C45.2926 18.4441 45.3078 18.4606 45.3078 18.4757C45.3078 18.5389 45.2914 18.6033 45.3078 18.6671C45.3078 18.6987 45.3394 18.7461 45.3552 18.7789C45.3874 18.7461 45.419 18.7303 45.4828 18.6817C45.6268 19.2267 45.6432 19.7711 45.6432 20.3313C45.6432 20.8599 45.7386 21.3886 45.5156 21.9008C45.563 21.7246 45.4512 21.5635 45.4992 21.4037L45.5059 21.408Z" fill="#DD3A0A"/>
<path fill-rule="evenodd" clip-rule="evenodd" d="M35.2891 27.6346C35.3043 27.6346 35.3207 27.651 35.3207 27.651L35.3043 27.6328C35.3043 27.6176 35.3043 27.6176 35.2885 27.6328L35.2891 27.6346ZM37.8149 43.4539C37.6387 43.5815 37.4625 43.6939 37.2389 43.7419C37.2219 43.7261 37.2219 43.7097 37.2061 43.6933C37.3823 43.5815 37.5737 43.4697 37.7499 43.3573C37.7663 43.3877 37.7985 43.4205 37.8143 43.4527L37.8149 43.4539ZM7.83495 21.7579C8.01116 21.535 8.18736 21.3108 8.37814 21.0865C8.39333 21.1023 8.52093 21.1352 8.53733 21.1503C8.36113 21.3752 8.12113 21.679 7.94553 21.919C7.91272 21.8867 7.86473 21.775 7.83313 21.7585L7.83495 21.7579ZM3.29318 29.605C3.16559 29.3328 3.038 29.0442 2.9104 28.7726C2.9262 28.7562 3.038 28.7082 3.05379 28.7082C3.23 28.9634 3.30898 29.2672 3.43779 29.5406C3.43779 29.5406 3.3102 29.6044 3.29379 29.6044L3.29318 29.605ZM7.37136 21.919C7.27536 22.0636 7.17936 22.224 7.08336 22.3686C7.06756 22.3516 6.89136 22.4318 6.87556 22.416C6.97156 22.272 7.21095 22.015 7.30695 21.8716C7.32336 21.8874 7.33916 21.9038 7.37136 21.9202V21.919ZM36.1045 44.1114C36.1197 44.1114 36.1197 44.0956 36.1361 44.0956C36.2479 44.1114 36.3755 44.1272 36.5037 44.1272C36.2947 44.2712 36.1665 44.2547 36.1027 44.1114H36.1045ZM7.40174 22.5916C7.41875 22.543 7.45035 22.4956 7.48255 22.4476C7.51414 22.4476 7.56154 22.4312 7.56154 22.4312C7.62655 22.3194 7.62655 22.2392 7.69035 22.1432C7.67455 22.1274 7.65814 22.1274 7.64174 22.111C7.54635 22.1766 7.45035 22.2568 7.35435 22.3206C7.38655 22.3522 7.38655 22.3692 7.38655 22.4008C7.25895 22.3844 7.21035 22.4494 7.14655 22.6244C7.13075 22.673 7.05055 22.6888 6.97035 22.752C6.95455 22.7848 6.93875 22.865 6.90655 22.9446L6.92295 22.9616C6.89075 22.9938 6.84275 23.0102 6.84275 23.0102C6.74675 23.1056 6.63495 23.1864 6.53895 23.2818C6.52316 23.3304 6.50736 23.3778 6.50736 23.4258C6.61976 23.314 6.81116 23.1056 6.95516 22.9774L6.97156 22.9938C7.03536 22.8978 7.08336 22.8018 7.14776 22.7058C7.16295 22.7216 7.16295 22.7374 7.17936 22.7544C7.13075 22.882 7.08336 23.0254 7.03536 23.1536C7.00194 23.1694 6.95394 23.2022 6.95394 23.1858C6.89014 23.2344 6.84214 23.2976 6.77774 23.3456L6.49035 23.5376C6.33055 23.6816 6.17075 23.8092 5.99455 23.9538C5.88275 24.13 5.77095 24.2898 5.64214 24.4982C5.83475 24.4496 5.88275 24.5304 5.86695 24.6908C6.09055 24.7224 6.10695 24.5468 6.17075 24.4186C6.18655 24.3858 6.20295 24.3214 6.23455 24.3056C6.37855 24.178 6.53835 24.0662 6.69814 23.938C6.73035 23.9058 6.73035 23.8408 6.73035 23.7934C6.73035 23.7776 6.64954 23.7776 6.60154 23.7612C6.74554 23.6008 6.95394 23.3298 7.09733 23.1536C7.17754 23.105 7.25713 23.0406 7.25713 22.9926C7.24133 22.8164 7.35313 22.769 7.48194 22.7046C7.41754 22.656 7.40113 22.6092 7.40113 22.5934L7.40174 22.5916Z" fill="#DD3735"/>
<path fill-rule="evenodd" clip-rule="evenodd" d="M7.72254 22.4154C7.65874 22.5272 7.59495 22.6232 7.53115 22.7356L7.43515 22.687C7.37135 23.0546 7.14715 23.3748 6.92355 23.4386C6.98735 23.4708 7.05115 23.503 7.09976 23.4872C7.14715 23.4708 7.17874 23.39 7.21095 23.3426L7.64234 22.718L7.78695 22.4773L7.72315 22.4136L7.72254 22.4154ZM2.39879 29.444C2.479 29.444 2.5592 29.4598 2.65398 29.4598C2.65398 29.396 2.73479 29.4112 2.73479 29.348H2.7834C2.7834 29.4282 2.7992 29.492 2.7992 29.5728H2.46381C2.4474 29.5564 2.3836 29.4598 2.3994 29.444H2.39879ZM2.2712 28.7076C2.22259 28.659 2.1436 28.6116 2.1436 28.5636C2.1272 28.5004 2.1752 28.4208 2.22259 28.3406C2.2554 28.4524 2.2712 28.5484 2.30279 28.6608C2.28639 28.676 2.27059 28.6924 2.27059 28.7082L2.2712 28.7076ZM2.671 27.6826C2.73479 27.8442 2.79859 28.0204 2.863 28.1808C2.8472 28.1808 2.7512 28.2295 2.7354 28.2446C2.6716 28.0842 2.5914 27.908 2.5276 27.7482C2.5434 27.7324 2.6394 27.6838 2.6716 27.6838L2.671 27.6826ZM38.2639 42.9904C38.3429 42.9588 38.4389 42.9418 38.5677 42.9114C38.4231 43.0226 38.3113 43.1028 38.2153 43.1988C38.1989 43.183 38.1831 43.1666 38.1667 43.1666C38.1989 43.1028 38.2311 43.0548 38.2639 42.9904ZM18.6106 9.15887C18.706 9.09446 18.7868 9.04646 18.8822 8.98267L18.9138 9.01426C18.8166 9.14186 18.7376 9.26945 18.6252 9.43046C18.6094 9.31927 18.6094 9.25426 18.593 9.17527C18.5772 9.17527 18.593 9.17527 18.6094 9.15948L18.6106 9.15887ZM23.2952 17.2599C23.4392 17.1955 23.5832 17.1323 23.7588 17.0515C23.743 17.1475 23.743 17.2119 23.743 17.2763C23.6944 17.2599 23.6306 17.2435 23.5826 17.2435C23.4866 17.2599 23.3104 17.3881 23.2302 17.4039C23.215 17.4039 23.2946 17.2763 23.2946 17.2599H23.2952ZM35.2891 30.8372C35.3207 30.997 35.6245 31.0772 35.3207 31.237C35.3693 31.2705 35.4161 31.2857 35.4641 31.3185C35.4641 31.3349 35.4483 31.3671 35.4325 31.3829C35.4003 31.3981 35.3365 31.4303 35.3049 31.4132C35.2885 31.4132 35.2563 31.3501 35.2563 31.3179C35.2563 31.1739 35.2727 31.0299 35.2885 30.8379L35.2891 30.8372Z" fill="#DD3735"/>
</g>
<defs>
<clipPath id="clip0">
<rect width="48" height="47.3924" fill="white"/>
</clipPath>
</defs>
</svg>
