<?xml version="1.0" encoding="utf-8"?>
<svg width="48px" height="48px" viewBox="0 0 48 48" version="1.1" xmlns:xlink="http://www.w3.org/1999/xlink" xmlns="http://www.w3.org/2000/svg">
  <defs>
    <path d="M0 0L48 0L48 48L0 48L0 0Z" id="path_1" />
    <clipPath id="mask_1">
      <use xlink:href="#path_1" />
    </clipPath>
  </defs>
  <g id="React-Native-icon">
    <path d="M0 0L48 0L48 48L0 48L0 0Z" id="Background" fill="none" fill-rule="evenodd" stroke="none" />
    <g clip-path="url(#mask_1)">
      <path d="M23 20C10.1 20 0 15.6 0 10C0 4.4 10.1 0 23 0C35.9 0 46 4.4 46 10C46 15.6 35.9 20 23 20L23 20ZM23 2C10.4 2 2 6.1 2 10C2 13.9 10.4 18 23 18C35.6 18 44 13.9 44 10C44 6.1 35.6 2 23 2L23 2Z" transform="translate(1 14)" id="Shape" fill="#80DEEA" fill-rule="evenodd" stroke="none" />
      <path d="M5.57615 41.1449C4.57615 41.1449 3.77615 40.9449 2.97615 40.4449C-1.92385 37.6449 -0.623847 26.7449 5.77615 15.5449L5.77615 15.5449C8.77615 10.3449 12.4762 5.94488 16.0762 3.14488C19.9762 0.144884 23.4762 -0.755116 25.8762 0.644884C28.3762 2.04488 29.2762 5.54488 28.6762 10.4449C28.0762 15.0449 26.0762 20.4449 23.0762 25.6449C20.0762 30.8449 16.3762 35.2449 12.7762 38.0449C10.1762 40.0449 7.67615 41.1449 5.57615 41.1449L5.57615 41.1449ZM23.3762 1.94488C21.7762 1.94488 19.6762 2.84488 17.3762 4.64488C13.9762 7.34488 10.4762 11.5449 7.57616 16.5449L7.57616 16.5449C1.27616 27.4449 0.676156 36.8449 3.97616 38.7449C5.67616 39.7449 8.47616 38.8449 11.5762 36.4449C14.9762 33.7449 18.4762 29.5449 21.3762 24.5449C24.2762 19.5449 26.1762 14.4449 26.7762 10.1449C27.2762 6.14489 26.6762 3.34489 24.9762 2.34489C24.4762 2.14488 23.9762 1.94488 23.3762 1.94488L23.3762 1.94488Z" transform="translate(9.523865 3.4551086)" id="Shape" fill="#80DEEA" fill-rule="evenodd" stroke="none" />
      <path d="M23.4693 41.1489C18.4693 41.1489 11.2693 35.0489 5.86929 25.5489C-0.630707 14.3489 -1.93071 3.4489 2.96929 0.648898L2.96929 0.648898C7.86929 -2.1511 16.6693 4.3489 23.1693 15.5489C26.1693 20.7489 28.1693 26.1489 28.7693 30.7489C29.4693 35.6489 28.4693 39.0489 25.9693 40.5489C25.1693 40.9489 24.3693 41.1489 23.4693 41.1489L23.4693 41.1489ZM3.96929 2.3489C0.669293 4.2489 1.26929 13.6489 7.56929 24.5489C13.8693 35.4489 21.6693 40.6489 24.9693 38.7489C26.6693 37.7489 27.2693 34.9489 26.7693 30.9489C26.1693 26.6489 24.2693 21.5489 21.3693 16.5489C15.0693 5.6489 7.26929 0.448899 3.96929 2.3489L3.96929 2.3489L3.96929 2.3489Z" transform="translate(9.530701 3.4511108)" id="Shape" fill="#80DEEA" fill-rule="evenodd" stroke="none" />
      <path d="M0 4C0 1.79086 1.79086 0 4 0C6.20914 0 8 1.79086 8 4C8 6.20914 6.20914 8 4 8C1.79086 8 0 6.20914 0 4Z" transform="translate(20 20)" id="Circle" fill="#80DEEA" fill-rule="evenodd" stroke="none" />
    </g>
  </g>
</svg>