<?xml version="1.0" encoding="utf-8"?>
<svg width="48px" height="48px" viewBox="0 0 48 48" version="1.1" xmlns:xlink="http://www.w3.org/1999/xlink" xmlns="http://www.w3.org/2000/svg">
  <defs>
    <path d="M0 0L48 0L48 48L0 48L0 0Z" id="path_1" />
    <clipPath id="mask_1">
      <use xlink:href="#path_1" />
    </clipPath>
  </defs>
  <g id="Sass-icon">
    <path d="M0 0L48 0L48 48L0 48L0 0Z" id="Background" fill="none" fill-rule="evenodd" stroke="none" />
    <g clip-path="url(#mask_1)">
      <path d="M37.8671 18.9565C36.3291 18.9645 34.9971 19.3335 33.8811 19.8845C33.4731 19.0695 33.0591 18.3525 32.9901 17.8195C32.9091 17.1975 32.8151 16.8255 32.9131 16.0845C33.0111 15.3435 33.4401 14.2935 33.4341 14.2145C33.4281 14.1355 33.3381 13.7585 32.4511 13.7515C31.5641 13.7455 30.8051 13.9225 30.7161 14.1565C30.6271 14.3905 30.4561 14.9175 30.3501 15.4675C30.1951 16.2715 28.5791 19.1405 27.6621 20.6405C27.3621 20.0545 27.1071 19.5385 27.0541 19.1305C26.9731 18.5085 26.8791 18.1365 26.9771 17.3955C27.0751 16.6545 27.5041 15.6045 27.4981 15.5255C27.4921 15.4465 27.4021 15.0695 26.5151 15.0625C25.6281 15.0565 24.8691 15.2335 24.7801 15.4675C24.6911 15.7015 24.5951 16.2485 24.4141 16.7785C24.2321 17.3075 22.0851 22.0925 21.5221 23.3335C21.2351 23.9655 20.9861 24.4735 20.8101 24.8195C20.8091 24.8185 20.8091 24.8175 20.8091 24.8175C20.8091 24.8175 20.7981 24.8405 20.7801 24.8795C20.6291 25.1745 20.5401 25.3375 20.5401 25.3375C20.5401 25.3375 20.5411 25.3395 20.5431 25.3435C20.4231 25.5605 20.2951 25.7615 20.2321 25.7615C20.1881 25.7615 20.0991 25.1845 20.2511 24.3925C20.5711 22.7325 21.3381 20.1445 21.3311 20.0545C21.3271 20.0085 21.4741 19.5575 20.8301 19.3215C20.2041 19.0925 19.9811 19.4745 19.9241 19.4755C19.8691 19.4765 19.8281 19.6105 19.8281 19.6105C19.8281 19.6105 20.5251 16.6995 18.4981 16.6995C17.2301 16.6995 15.4741 18.0865 14.6091 19.3435C14.0631 19.6415 12.8941 20.2795 11.6551 20.9605C11.1791 21.2225 10.6931 21.4895 10.2321 21.7435C10.2011 21.7085 10.1691 21.6745 10.1371 21.6395C7.67813 19.0165 3.13413 17.1615 3.32613 13.6345C3.39613 12.3525 3.84213 8.97654 12.0591 4.88254C18.7901 1.52854 24.1791 2.45154 25.1101 4.49654C26.4401 7.41954 22.2301 12.8505 15.2401 13.6345C12.5771 13.9335 11.1741 12.9005 10.8251 12.5165C10.4581 12.1115 10.4031 12.0935 10.2661 12.1695C10.0431 12.2935 10.1841 12.6505 10.2661 12.8635C10.4751 13.4065 11.3311 14.3695 12.7911 14.8495C14.0761 15.2715 17.2031 15.5025 20.9841 14.0395C25.2201 12.4015 28.5271 7.84354 27.5551 4.03454C26.5671 0.160542 20.1431 -1.11346 14.0631 1.04654C10.4401 2.33254 6.52313 4.35054 3.70613 6.98454C0.357131 10.1165 -0.176869 12.8435 0.0431311 13.9825C0.825131 18.0305 6.40413 20.6665 8.63813 22.6195C8.52813 22.6805 8.42413 22.7375 8.33013 22.7895C7.21013 23.3435 2.95713 25.5695 1.89313 27.9205C0.686132 30.5875 2.08513 32.5015 3.01113 32.7595C5.88013 33.5575 8.82413 32.1215 10.4071 29.7615C11.9891 27.4025 11.7961 24.3295 11.0701 22.9275C11.0611 22.9105 11.0511 22.8935 11.0421 22.8755C11.3311 22.7045 11.6261 22.5305 11.9181 22.3585C12.4881 22.0235 13.0481 21.7115 13.5331 21.4475C13.2611 22.1915 13.0621 23.0845 12.9591 24.3735C12.8371 25.8875 13.4581 27.8445 14.2701 28.6145C14.6281 28.9535 15.0581 28.9615 15.3301 28.9615C16.2751 28.9615 16.7061 28.1755 17.1811 27.2455C17.7631 26.1055 18.2801 24.7775 18.2801 24.7775C18.2801 24.7775 17.6321 28.3635 19.3981 28.3635C20.0421 28.3635 20.6891 27.5285 20.9781 27.1035C20.9791 27.1085 20.9791 27.1105 20.9791 27.1105C20.9791 27.1105 20.9961 27.0825 21.0291 27.0275C21.0961 26.9255 21.1341 26.8605 21.1341 26.8605C21.1341 26.8605 21.1351 26.8535 21.1371 26.8415C21.3961 26.3925 21.9701 25.3685 22.8301 23.6795C23.9421 21.4975 25.0081 18.7635 25.0081 18.7635C25.0081 18.7635 25.1071 19.4315 25.4321 20.5375C25.6231 21.1875 26.0291 21.9065 26.3501 22.5965C26.0921 22.9545 25.9341 23.1595 25.9341 23.1595C25.9341 23.1595 25.9351 23.1635 25.9381 23.1705C25.7321 23.4445 25.5011 23.7395 25.2591 24.0275C24.3811 25.0725 23.3361 26.2665 23.1961 26.6105C23.0311 27.0165 23.0701 27.3145 23.3891 27.5555C23.6221 27.7305 24.0361 27.7585 24.4691 27.7295C25.2581 27.6765 25.8121 27.4805 26.0861 27.3615C26.5131 27.2105 27.0101 26.9735 27.4761 26.6305C28.3371 25.9975 28.8561 25.0925 28.8061 23.8925C28.7781 23.2315 28.5681 22.5765 28.3011 21.9585C28.3791 21.8465 28.4571 21.7325 28.5361 21.6185C29.8931 19.6345 30.9461 17.4545 30.9461 17.4545C30.9461 17.4545 31.0451 18.1225 31.3701 19.2285C31.5341 19.7875 31.8591 20.3985 32.1511 20.9965C30.8751 22.0335 30.0841 23.2385 29.8091 24.0285C29.3011 25.4905 29.6991 26.1525 30.4451 26.3035C30.7831 26.3715 31.2611 26.2165 31.6201 26.0645C32.0671 25.9165 32.6041 25.6695 33.1061 25.3005C33.9671 24.6675 34.7951 23.7815 34.7451 22.5825C34.7221 22.0365 34.5741 21.4945 34.3731 20.9745C35.4551 20.5235 36.8551 20.2735 38.6391 20.4815C42.4661 20.9285 43.2161 23.3175 43.0731 24.3175C42.9291 25.3175 42.1271 25.8675 41.8581 26.0335C41.5901 26.1995 41.5081 26.2575 41.5301 26.3805C41.5631 26.5595 41.6871 26.5535 41.9161 26.5145C42.2311 26.4615 43.9251 25.7015 43.9981 23.8555C44.0891 21.5095 41.8441 18.9355 37.8671 18.9565L37.8671 18.9565ZM8.37013 28.9005C7.10213 30.2835 5.33213 30.8055 4.57213 30.3655C3.75213 29.8905 4.07713 27.8545 5.63213 26.3865C6.58013 25.4925 7.80413 24.6685 8.61613 24.1615C8.80113 24.0505 9.07213 23.8875 9.40213 23.6895C9.45713 23.6585 9.48813 23.6415 9.48813 23.6415L9.48713 23.6395C9.55113 23.6015 9.61613 23.5625 9.68313 23.5215C10.2501 25.6105 9.70113 27.4495 8.37013 28.9005L8.37013 28.9005ZM17.6051 22.6235C17.1641 23.6995 16.2401 26.4535 15.6771 26.3055C15.1941 26.1785 14.9001 24.0855 15.5811 22.0255C15.9231 20.9885 16.6551 19.7495 17.0851 19.2685C17.7771 18.4945 18.5391 18.2415 18.7241 18.5555C18.9591 18.9555 17.8821 21.9485 17.6051 22.6235L17.6051 22.6235ZM25.2341 26.2635C25.0471 26.3615 24.8751 26.4225 24.7961 26.3755C24.7371 26.3405 24.8731 26.2115 24.8731 26.2115C24.8731 26.2115 25.8271 25.1845 26.2031 24.7175C26.4221 24.4455 26.6751 24.1225 26.9511 23.7625C26.9531 23.7985 26.9541 23.8345 26.9541 23.8695C26.9521 25.0995 25.7641 25.9295 25.2341 26.2635L25.2341 26.2635ZM31.1111 24.9235C30.9711 24.8245 30.9951 24.5035 31.4541 23.5025C31.6341 23.1095 32.0461 22.4485 32.7601 21.8165C32.8431 22.0765 32.8931 22.3255 32.8921 22.5575C32.8831 24.1055 31.7791 24.6835 31.1111 24.9235L31.1111 24.9235Z" transform="translate(1.9998779 6.9994507)" id="Shape" fill="#F06292" fill-rule="evenodd" stroke="none" />
    </g>
  </g>
</svg>